<svg xmlns="http://www.w3.org/2000/svg" xmlns:xlink="http://www.w3.org/1999/xlink" width="150" zoomAndPan="magnify" viewBox="0 0 112.5 112.499997" height="150" preserveAspectRatio="xMidYMid meet" version="1.0"><defs><g/></defs><g fill="#bfbfbf" fill-opacity="0.302"><g transform="translate(14.954722, 84.537731)"><g><path d="M 40.984375 4.328125 L 7.734375 -9.765625 L 0.984375 -17.890625 L 0.984375 -28.046875 L 34 -42.03125 L 40.984375 -35.046875 L 40.984375 -25.84375 L 22.921875 -19.03125 L 34.265625 -14.734375 L 40.984375 -6.6875 Z M 33.28125 -5.28125 L 33.28125 -13.890625 L 9.53125 -22.859375 L 33.28125 -31.84375 L 33.28125 -40.453125 L 2.15625 -27.25 L 2.15625 -18.46875 Z M 39.796875 -26.703125 L 39.796875 -34.59375 L 34.453125 -39.921875 L 34.453125 -31.046875 L 34.390625 -31.015625 L 34.359375 -31.015625 L 33.703125 -30.765625 L 33.703125 -30.296875 L 34.421875 -30.296875 L 34.421875 -31.015625 Z M 32.53125 -29.125 L 33.25 -29.125 L 33.25 -29.875 L 32.53125 -29.875 Z M 34.859375 -29.125 L 35.578125 -29.125 L 35.578125 -29.84375 L 34.859375 -29.84375 Z M 30.171875 -29.125 L 30.921875 -29.125 L 30.921875 -29.703125 L 30.171875 -29.421875 Z M 28.984375 -27.9375 L 29.78125 -27.9375 L 29.78125 -28.6875 L 28.984375 -28.6875 Z M 31.34375 -27.9375 L 32.09375 -27.9375 L 32.09375 -28.6875 L 31.34375 -28.6875 Z M 33.671875 -27.9375 L 34.421875 -27.9375 L 34.421875 -28.6875 L 33.671875 -28.6875 Z M 36.03125 -27.96875 L 36.75 -27.96875 L 36.75 -28.6875 L 36.03125 -28.6875 Z M 26.65625 -27.9375 L 27.421875 -27.9375 L 27.421875 -28.359375 L 26.65625 -28.109375 Z M 25.484375 -26.765625 L 26.265625 -26.765625 L 26.265625 -27.546875 L 25.484375 -27.546875 Z M 27.84375 -26.765625 L 28.59375 -26.765625 L 28.59375 -27.546875 L 27.84375 -27.546875 Z M 30.171875 -26.765625 L 30.921875 -26.765625 L 30.921875 -27.546875 L 30.171875 -27.546875 Z M 32.5 -26.796875 L 33.25 -26.796875 L 33.25 -27.515625 L 32.5 -27.515625 Z M 34.859375 -26.796875 L 35.578125 -26.796875 L 35.578125 -27.515625 L 34.859375 -27.515625 Z M 37.171875 -26.796875 L 37.90625 -26.796875 L 37.90625 -27.515625 L 37.171875 -27.515625 Z M 23.15625 -26.765625 L 23.9375 -26.765625 L 23.9375 -27.0625 Z M 21.984375 -25.578125 L 22.796875 -25.578125 L 22.796875 -26.40625 L 22.203125 -26.40625 L 21.984375 -26.296875 Z M 24.3125 -25.578125 L 25.125 -25.578125 L 25.125 -26.40625 L 24.3125 -26.40625 Z M 26.65625 -25.578125 L 27.453125 -25.578125 L 27.453125 -26.375 L 26.65625 -26.375 Z M 28.984375 -25.609375 L 29.78125 -25.609375 L 29.78125 -26.375 L 28.984375 -26.375 Z M 31.34375 -25.609375 L 32.09375 -25.609375 L 32.09375 -26.375 L 31.34375 -26.375 Z M 33.671875 -25.609375 L 34.421875 -25.609375 L 34.421875 -26.375 L 33.671875 -26.375 Z M 36.03125 -25.609375 L 36.75 -25.609375 L 36.75 -26.375 L 36.03125 -26.375 Z M 38.359375 -26.078125 L 39.015625 -26.328125 L 38.359375 -26.328125 Z M 20.046875 -25.578125 L 20.46875 -25.578125 L 20.46875 -25.75 Z M 18.4375 -24.40625 L 19.296875 -24.40625 L 19.296875 -25.25 L 19.15625 -25.25 L 18.4375 -24.953125 Z M 20.796875 -24.40625 L 21.625 -24.40625 L 21.625 -25.21875 L 20.796875 -25.21875 Z M 23.125 -24.40625 L 23.9375 -24.40625 L 23.9375 -25.21875 L 23.125 -25.21875 Z M 25.484375 -24.40625 L 26.265625 -24.40625 L 26.265625 -25.21875 L 25.484375 -25.21875 Z M 27.8125 -24.4375 L 28.59375 -24.4375 L 28.59375 -25.21875 L 27.8125 -25.21875 Z M 30.171875 -24.4375 L 30.921875 -24.4375 L 30.921875 -25.1875 L 30.171875 -25.1875 Z M 32.5 -24.4375 L 33.28125 -24.4375 L 33.28125 -25.1875 L 32.5 -25.1875 Z M 34.859375 -24.765625 L 35.609375 -25.0625 L 35.609375 -25.1875 L 34.859375 -25.1875 Z M 17.265625 -23.21875 L 18.140625 -23.21875 L 18.140625 -24.078125 L 17.265625 -24.078125 Z M 19.625 -23.21875 L 20.46875 -23.21875 L 20.46875 -24.078125 L 19.625 -24.078125 Z M 21.953125 -23.21875 L 22.796875 -23.21875 L 22.796875 -24.078125 L 21.953125 -24.078125 Z M 24.3125 -23.25 L 25.125 -23.25 L 25.125 -24.078125 L 24.3125 -24.078125 Z M 26.625 -23.25 L 27.453125 -23.25 L 27.453125 -24.046875 L 26.625 -24.046875 Z M 28.984375 -23.25 L 29.78125 -23.25 L 29.78125 -24.046875 L 28.984375 -24.046875 Z M 31.3125 -23.421875 L 32.09375 -23.71875 L 32.09375 -24.046875 L 31.3125 -24.046875 Z M 14.9375 -23.21875 L 15.828125 -23.21875 L 15.828125 -23.984375 L 14.9375 -23.65625 Z M 14.640625 -22.171875 L 14.640625 -22.921875 L 13.75 -22.921875 L 13.75 -22.53125 Z M 16.109375 -22.046875 L 16.96875 -22.046875 L 16.96875 -22.921875 L 16.109375 -22.921875 Z M 18.4375 -22.046875 L 19.328125 -22.046875 L 19.328125 -22.921875 L 18.4375 -22.921875 Z M 20.765625 -22.046875 L 21.65625 -22.046875 L 21.65625 -22.890625 L 20.765625 -22.890625 Z M 23.125 -22.078125 L 23.984375 -22.078125 L 23.984375 -22.890625 L 23.125 -22.890625 Z M 25.484375 -22.078125 L 26.296875 -22.078125 L 26.296875 -22.890625 L 25.484375 -22.890625 Z M 27.8125 -22.109375 L 28.625 -22.40625 L 28.625 -22.890625 L 27.8125 -22.890625 Z M 18.140625 -20.859375 L 18.140625 -21.75 L 17.265625 -21.75 L 17.265625 -21.1875 Z M 19.625 -20.890625 L 20.46875 -20.890625 L 20.46875 -21.75 L 19.625 -21.75 Z M 21.953125 -20.890625 L 22.796875 -20.890625 L 22.796875 -21.75 L 21.953125 -21.75 Z M 24.3125 -20.890625 L 24.625 -20.890625 L 25.125 -21.09375 L 25.125 -21.75 L 24.3125 -21.75 Z M 26.625 -21.65625 L 26.796875 -21.71875 L 26.625 -21.71875 Z M 19.328125 -20.40625 L 19.328125 -20.609375 L 18.828125 -20.609375 Z M 21.15625 -19.71875 L 21.484375 -19.71875 L 21.65625 -19.78125 L 21.65625 -20.578125 L 20.765625 -20.578125 L 20.765625 -19.84375 Z M 23.125 -20.34375 L 23.75 -20.578125 L 23.125 -20.578125 Z M 39.765625 2.5625 L 39.796875 2.5625 L 39.796875 -6.21875 L 34.453125 -12.640625 L 34.453125 -3.703125 Z M 39.765625 2.5625 "/></g></g></g><g fill="#bfbfbf" fill-opacity="0.302"><g transform="translate(44.165287, 84.537731)"><g><path d="M 5.375 14.453125 L 0.09375 7.4375 L 0.125 7.40625 L 23.984375 -51.5 L 33.96875 -51.453125 L 38.546875 -44.453125 L 14.3125 14.453125 Z M 1.671875 6.75 L 9.296875 6.75 L 32.78125 -50.3125 L 24.765625 -50.3125 Z M 33.375 -48.546875 L 34.359375 -48.546875 L 34.359375 -48.78125 L 33.84375 -49.5625 L 33.765625 -49.5625 L 33.375 -48.578125 Z M 34.53125 -47.390625 L 35.25 -47.390625 L 34.625 -48.375 L 34.53125 -48.375 Z M 32.890625 -47.359375 L 33.21875 -47.359375 L 33.21875 -48.1875 Z M 33.34375 -46.21875 L 34.359375 -46.21875 L 34.359375 -47.234375 L 33.34375 -47.234375 Z M 35.703125 -46.21875 L 36 -46.21875 L 35.703125 -46.703125 Z M 32.171875 -45.046875 L 33.21875 -45.046875 L 33.21875 -46.0625 L 32.328125 -46.0625 L 32.171875 -45.65625 Z M 34.53125 -45.046875 L 35.546875 -45.046875 L 35.546875 -46.0625 L 34.53125 -46.0625 Z M 31.40625 -43.859375 L 32.0625 -43.859375 L 32.0625 -44.90625 L 31.875 -44.90625 Z M 33.34375 -43.859375 L 34.390625 -43.859375 L 34.390625 -44.90625 L 33.34375 -44.90625 Z M 35.671875 -43.859375 L 36.6875 -43.859375 L 36.6875 -44.875 L 35.671875 -44.875 Z M 32.171875 -42.6875 L 33.21875 -42.6875 L 33.21875 -43.734375 L 32.171875 -43.734375 Z M 34.53125 -42.6875 L 35.546875 -42.6875 L 35.546875 -43.734375 L 34.53125 -43.734375 Z M 36.84375 -43.375 L 37.015625 -43.734375 L 36.84375 -43.734375 Z M 30.984375 -41.5 L 32.0625 -41.5 L 32.0625 -42.578125 L 30.984375 -42.578125 Z M 33.3125 -41.5 L 34.390625 -41.5 L 34.390625 -42.578125 L 33.3125 -42.578125 Z M 35.671875 -41.53125 L 36.09375 -41.53125 L 36.515625 -42.578125 L 35.671875 -42.578125 Z M 29.96875 -40.328125 L 30.921875 -40.328125 L 30.921875 -41.4375 L 30.4375 -41.4375 Z M 32.171875 -40.328125 L 33.25 -40.328125 L 33.25 -41.4375 L 32.171875 -41.4375 Z M 34.484375 -40.359375 L 35.578125 -40.359375 L 35.578125 -41.40625 L 34.484375 -41.40625 Z M 30.984375 -39.140625 L 32.0625 -39.140625 L 32.0625 -40.25 L 30.984375 -40.25 Z M 33.3125 -39.171875 L 34.390625 -39.171875 L 34.390625 -40.25 L 33.3125 -40.25 Z M 29.484375 -39.140625 L 29.75 -39.140625 L 29.75 -39.765625 Z M 29.8125 -38 L 30.921875 -38 L 30.921875 -39.109375 L 29.8125 -39.109375 Z M 32.140625 -38 L 33.25 -38 L 33.25 -39.109375 L 32.140625 -39.109375 Z M 34.484375 -38 L 34.65625 -38 L 35.078125 -39.078125 L 34.484375 -39.078125 Z M 13.53125 13.265625 L 14.046875 11.953125 L 13.71875 11.953125 L 13.71875 11.40625 L 14.28125 11.40625 L 16.046875 7.140625 L 16.046875 6.6875 L 16.25 6.6875 L 17.421875 3.796875 L 17.203125 3.796875 L 17.203125 3.140625 L 17.6875 3.140625 L 18.875 0.328125 L 18.34375 0.328125 L 18.34375 -0.359375 L 19.03125 -0.359375 L 19.03125 -0.09375 L 19.484375 -1.21875 L 19.484375 -1.546875 L 19.625 -1.546875 L 20.765625 -4.328125 L 20.640625 -4.328125 L 20.640625 -5.078125 L 21.09375 -5.078125 L 22.203125 -7.796875 L 21.78125 -7.796875 L 21.78125 -8.609375 L 22.53125 -8.609375 L 22.921875 -9.5625 L 22.921875 -9.796875 L 23.03125 -9.796875 L 23.609375 -11.265625 L 22.921875 -11.265625 L 22.921875 -12.125 L 23.78125 -12.125 L 23.78125 -11.625 L 24.109375 -12.421875 L 24.078125 -12.421875 L 24.078125 -13.328125 L 24.46875 -13.328125 L 25.546875 -15.890625 L 25.21875 -15.890625 L 25.21875 -16.84375 L 25.90625 -16.84375 L 26.375 -17.921875 L 26.375 -18.015625 L 26.40625 -18.015625 L 26.984375 -19.390625 L 26.375 -19.390625 L 26.375 -20.375 L 27.34375 -20.375 L 27.34375 -20.3125 L 27.515625 -20.703125 L 27.515625 -21.546875 L 27.875 -21.546875 L 28.40625 -22.859375 L 27.515625 -22.859375 L 27.515625 -23.875 L 28.5625 -23.875 L 28.5625 -23.25 L 28.890625 -24.015625 L 28.65625 -24.015625 L 28.65625 -25.0625 L 29.3125 -25.0625 L 30.296875 -27.484375 L 29.8125 -27.484375 L 29.8125 -28.59375 L 30.765625 -28.59375 L 30.953125 -29.046875 L 30.953125 -29.78125 L 31.25 -29.78125 L 31.734375 -30.953125 L 30.953125 -30.953125 L 30.953125 -32.140625 L 32.09375 -32.140625 L 32.09375 -31.84375 L 32.234375 -32.140625 L 32.09375 -32.140625 L 32.09375 -33.28125 L 30.953125 -33.28125 L 30.953125 -34.453125 L 32.09375 -34.453125 L 32.09375 -33.3125 L 32.71875 -33.3125 L 33.1875 -34.453125 L 32.09375 -34.453125 L 32.09375 -35.609375 L 30.953125 -35.609375 L 30.953125 -34.453125 L 29.78125 -34.453125 L 29.78125 -35.640625 L 30.921875 -35.640625 L 30.921875 -36.78125 L 29.78125 -36.78125 L 29.78125 -37.96875 L 28.984375 -37.96875 L 28.625 -37.078125 L 28.625 -36.78125 L 29.78125 -36.78125 L 29.78125 -35.640625 L 28.59375 -35.640625 L 28.59375 -36.78125 L 28.5 -36.78125 L 28.046875 -35.640625 L 28.59375 -35.640625 L 28.59375 -34.453125 L 27.546875 -34.453125 L 27.421875 -34.125 L 27.421875 -33.3125 L 27.09375 -33.3125 L 26.59375 -32.09375 L 27.421875 -32.09375 L 27.421875 -30.984375 L 26.296875 -30.984375 L 26.296875 -31.40625 L 26.109375 -30.921875 L 26.234375 -30.921875 L 26.234375 -29.84375 L 25.640625 -29.84375 L 24.625 -27.390625 L 25.0625 -27.390625 L 25.0625 -26.375 L 24.203125 -26.375 L 23.875 -25.546875 L 23.875 -25.1875 L 23.75 -25.1875 L 23.1875 -23.875 L 23.84375 -23.875 L 23.84375 -22.859375 L 22.859375 -22.859375 L 22.859375 -23.0625 L 22.671875 -22.609375 L 22.671875 -21.71875 L 22.3125 -21.71875 L 21.75 -20.34375 L 22.671875 -20.34375 L 22.671875 -19.390625 L 21.71875 -19.390625 L 21.71875 -20.3125 L 21.265625 -19.15625 L 21.484375 -19.15625 L 21.484375 -18.25 L 20.859375 -18.25 L 19.78125 -15.625 L 20.3125 -15.625 L 20.3125 -14.765625 L 19.453125 -14.765625 L 19.09375 -13.921875 L 19.09375 -13.625 L 18.96875 -13.625 L 18.34375 -12.125 L 19.09375 -12.125 L 19.09375 -11.296875 L 18.28125 -11.296875 L 18.28125 -11.953125 L 17.859375 -10.9375 L 17.921875 -10.9375 L 17.921875 -10.125 L 17.53125 -10.125 L 16.40625 -7.40625 L 16.734375 -7.40625 L 16.734375 -6.65625 L 16.078125 -6.65625 L 14.9375 -3.859375 L 15.53125 -3.859375 L 15.53125 -3.171875 L 14.84375 -3.171875 L 14.84375 -3.609375 L 14.34375 -2.390625 L 14.34375 -2.03125 L 14.1875 -2.03125 L 13 0.8125 L 13.171875 0.8125 L 13.171875 1.4375 L 12.78125 1.4375 L 11.5625 4.359375 L 11.953125 4.359375 L 11.953125 4.90625 L 11.40625 4.90625 L 11.40625 4.75 L 10.09375 7.921875 L 10.21875 8.15625 L 10.21875 7.890625 L 10.8125 7.890625 L 10.8125 8.453125 L 10.421875 8.453125 Z M 30.953125 -36.8125 L 32.09375 -36.8125 L 32.09375 -37.9375 L 30.953125 -37.9375 Z M 33.3125 -36.8125 L 34.171875 -36.8125 L 34.421875 -37.46875 L 34.421875 -37.9375 L 33.3125 -37.9375 Z M 32.140625 -35.640625 L 33.25 -35.640625 L 33.25 -36.78125 L 32.140625 -36.78125 Z M 33.3125 -34.78125 L 33.640625 -35.609375 L 33.3125 -35.609375 Z M 28.625 -33.3125 L 28.625 -34.453125 L 29.78125 -34.453125 L 29.78125 -33.3125 Z M 27.484375 -32.171875 L 27.484375 -33.28125 L 28.59375 -33.28125 L 28.59375 -32.171875 Z M 29.78125 -32.140625 L 29.78125 -33.28125 L 30.953125 -33.28125 L 30.953125 -32.140625 Z M 28.625 -30.984375 L 28.625 -32.09375 L 29.78125 -32.09375 L 29.78125 -30.984375 Z M 29.8125 -29.8125 L 29.8125 -30.953125 L 30.921875 -30.953125 L 30.921875 -29.8125 Z M 27.484375 -29.84375 L 27.484375 -30.921875 L 28.5625 -30.921875 L 28.5625 -29.84375 Z M 28.65625 -28.65625 L 28.65625 -29.78125 L 29.75 -29.78125 L 29.75 -28.65625 Z M 26.328125 -28.65625 L 26.328125 -29.75 L 27.421875 -29.75 L 27.421875 -28.65625 Z M 27.484375 -27.515625 L 27.484375 -28.59375 L 28.5625 -28.59375 L 28.5625 -27.515625 Z M 25.15625 -27.515625 L 25.15625 -28.5625 L 26.234375 -28.5625 L 26.234375 -27.515625 Z M 26.328125 -26.328125 L 26.328125 -27.421875 L 27.390625 -27.421875 L 27.390625 -26.328125 Z M 28.65625 -26.328125 L 28.65625 -27.421875 L 29.75 -27.421875 L 29.75 -26.328125 Z M 25.1875 -25.1875 L 25.1875 -26.234375 L 26.203125 -26.234375 L 26.203125 -25.1875 Z M 27.515625 -25.1875 L 27.515625 -26.234375 L 28.5625 -26.234375 L 28.5625 -25.1875 Z M 24.015625 -24.046875 L 24.015625 -25.0625 L 25.03125 -25.0625 L 25.03125 -24.046875 Z M 26.328125 -24.015625 L 26.328125 -25.0625 L 27.390625 -25.0625 L 27.390625 -24.015625 Z M 25.1875 -22.859375 L 25.1875 -23.875 L 26.203125 -23.875 L 26.203125 -22.859375 Z M 24.046875 -21.71875 L 24.046875 -22.703125 L 25.03125 -22.703125 L 25.03125 -21.71875 Z M 26.375 -21.71875 L 26.375 -22.703125 L 27.34375 -22.703125 L 27.34375 -21.71875 Z M 22.859375 -20.578125 L 22.859375 -21.515625 L 23.84375 -21.515625 L 23.84375 -20.578125 Z M 25.1875 -20.53125 L 25.1875 -21.515625 L 26.203125 -21.515625 L 26.203125 -20.53125 Z M 24.046875 -19.390625 L 24.046875 -20.34375 L 25.03125 -20.34375 L 25.03125 -19.390625 Z M 25.21875 -18.21875 L 25.21875 -19.1875 L 26.171875 -19.1875 L 26.171875 -18.21875 Z M 22.890625 -18.25 L 22.890625 -19.15625 L 23.8125 -19.15625 L 23.8125 -18.25 Z M 24.046875 -17.0625 L 24.046875 -18.015625 L 25 -18.015625 L 25 -17.0625 Z M 21.71875 -17.0625 L 21.71875 -17.984375 L 22.671875 -17.984375 L 22.671875 -17.0625 Z M 22.890625 -15.921875 L 22.890625 -16.84375 L 23.8125 -16.84375 L 23.8125 -15.921875 Z M 20.578125 -15.921875 L 20.578125 -16.796875 L 21.484375 -16.796875 L 21.484375 -15.921875 Z M 21.75 -14.734375 L 21.75 -15.65625 L 22.640625 -15.65625 L 22.640625 -14.734375 Z M 24.078125 -14.734375 L 24.078125 -15.65625 L 25 -15.65625 L 25 -14.734375 Z M 20.609375 -13.59375 L 20.609375 -14.484375 L 21.453125 -14.484375 L 21.453125 -13.59375 Z M 22.890625 -13.59375 L 22.890625 -14.484375 L 23.8125 -14.484375 L 23.8125 -13.59375 Z M 19.421875 -12.453125 L 19.421875 -13.296875 L 20.28125 -13.296875 L 20.28125 -12.453125 Z M 21.75 -12.453125 L 21.75 -13.296875 L 22.640625 -13.296875 L 22.640625 -12.453125 Z M 20.609375 -11.265625 L 20.609375 -12.125 L 21.453125 -12.125 L 21.453125 -11.265625 Z M 19.453125 -10.125 L 19.453125 -10.9375 L 20.28125 -10.9375 L 20.28125 -10.125 Z M 21.78125 -10.125 L 21.78125 -10.9375 L 22.609375 -10.9375 L 22.609375 -10.125 Z M 20.609375 -8.9375 L 20.609375 -9.796875 L 21.421875 -9.796875 L 21.421875 -8.9375 Z M 18.28125 -8.96875 L 18.28125 -9.765625 L 19.09375 -9.765625 L 19.09375 -8.96875 Z M 17.125 -7.828125 L 17.125 -8.578125 L 17.921875 -8.578125 L 17.921875 -7.828125 Z M 19.453125 -7.796875 L 19.453125 -8.578125 L 20.25 -8.578125 L 20.25 -7.796875 Z M 20.640625 -6.609375 L 20.640625 -7.4375 L 21.421875 -7.4375 L 21.421875 -6.609375 Z M 18.3125 -6.65625 L 18.3125 -7.40625 L 19.0625 -7.40625 L 19.0625 -6.65625 Z M 19.453125 -5.46875 L 19.453125 -6.25 L 20.25 -6.25 L 20.25 -5.46875 Z M 17.171875 -5.5 L 17.171875 -6.21875 L 17.890625 -6.21875 L 17.890625 -5.5 Z M 18.3125 -4.328125 L 18.3125 -5.078125 L 19.0625 -5.078125 L 19.0625 -4.328125 Z M 15.984375 -4.328125 L 15.984375 -5.046875 L 16.703125 -5.046875 L 16.703125 -4.328125 Z M 17.171875 -3.171875 L 17.171875 -3.890625 L 17.890625 -3.890625 L 17.890625 -3.171875 Z M 19.484375 -3.140625 L 19.484375 -3.890625 L 20.25 -3.890625 L 20.25 -3.140625 Z M 16.015625 -2.03125 L 16.015625 -2.71875 L 16.703125 -2.71875 L 16.703125 -2.03125 Z M 18.34375 -2 L 18.34375 -2.71875 L 19.0625 -2.71875 L 19.0625 -2 Z M 14.875 -0.859375 L 14.875 -1.546875 L 15.53125 -1.546875 L 15.53125 -0.859375 Z M 17.171875 -0.859375 L 17.171875 -1.546875 L 17.890625 -1.546875 L 17.890625 -0.859375 Z M 13.6875 0.296875 L 13.6875 -0.359375 L 14.34375 -0.359375 L 14.34375 0.296875 Z M 16.015625 0.296875 L 16.015625 -0.359375 L 16.671875 -0.359375 L 16.671875 0.296875 Z M 14.875 1.46875 L 14.875 0.8125 L 15.5 0.8125 L 15.5 1.46875 Z M 17.203125 1.46875 L 17.203125 0.8125 L 17.859375 0.8125 L 17.859375 1.46875 Z M 13.71875 2.625 L 13.71875 2 L 14.34375 2 L 14.34375 2.625 Z M 16.046875 2.625 L 16.046875 2 L 16.671875 2 L 16.671875 2.625 Z M 12.546875 3.765625 L 12.546875 3.171875 L 13.140625 3.171875 L 13.140625 3.765625 Z M 14.875 3.796875 L 14.875 3.171875 L 15.5 3.171875 L 15.5 3.796875 Z M 16.046875 4.953125 L 16.046875 4.328125 L 16.671875 4.328125 L 16.671875 4.953125 Z M 13.71875 4.953125 L 13.71875 4.359375 L 14.3125 4.359375 L 14.3125 4.953125 Z M 14.90625 6.09375 L 14.90625 5.5 L 15.5 5.5 L 15.5 6.09375 Z M 12.578125 6.09375 L 12.578125 5.53125 L 13.140625 5.53125 L 13.140625 6.09375 Z M 13.71875 7.265625 L 13.71875 6.6875 L 14.3125 6.6875 L 14.3125 7.265625 Z M 11.40625 7.265625 L 11.40625 6.71875 L 11.953125 6.71875 L 11.953125 7.265625 Z M 14.90625 8.421875 L 14.90625 7.859375 L 15.453125 7.859375 L 15.453125 8.421875 Z M 12.578125 8.453125 L 12.578125 7.890625 L 13.140625 7.890625 L 13.140625 8.453125 Z M 11.40625 9.625 L 11.40625 9.046875 L 11.953125 9.046875 L 11.953125 9.625 Z M 13.71875 9.625 L 13.71875 9.046875 L 14.3125 9.046875 L 14.3125 9.625 Z M 12.578125 10.78125 L 12.578125 10.21875 L 13.140625 10.21875 L 13.140625 10.78125 Z M 12.578125 10.78125 "/></g></g></g><g fill="#bfbfbf" fill-opacity="0.302"><g transform="translate(68.659657, 84.537731)"><g><path d="M 9.4375 1.5 L 2.421875 -4.09375 L 2.421875 -14.671875 L 16.96875 -20.203125 L 9.171875 -23.125 L 2.421875 -31.21875 L 2.421875 -42.21875 L 35.578125 -28.171875 L 42.421875 -22.734375 L 42.421875 -12.484375 Z M 3.609375 -5.28125 L 34.71875 -18.46875 L 34.71875 -27.25 L 3.609375 -40.453125 L 3.609375 -31.875 L 27.34375 -22.859375 L 3.609375 -13.890625 Z M 41.234375 -13.359375 L 41.234375 -22.140625 L 35.90625 -26.4375 L 35.90625 -17.6875 L 35.28125 -17.421875 L 35.28125 -17 L 35.9375 -17 L 35.9375 -17.65625 Z M 34.09375 -15.828125 L 34.78125 -15.828125 L 34.78125 -16.515625 L 34.09375 -16.515625 Z M 36.421875 -15.859375 L 37.109375 -15.859375 L 37.109375 -16.515625 L 36.421875 -16.515625 Z M 31.734375 -15.828125 L 32.46875 -15.828125 L 32.46875 -16.21875 L 31.734375 -15.921875 Z M 30.5625 -14.640625 L 31.28125 -14.640625 L 31.28125 -15.359375 L 30.5625 -15.359375 Z M 32.921875 -14.640625 L 33.609375 -14.640625 L 33.609375 -15.359375 L 32.921875 -15.359375 Z M 35.25 -14.671875 L 35.9375 -14.671875 L 35.9375 -15.359375 L 35.25 -15.359375 Z M 37.609375 -14.671875 L 38.265625 -14.671875 L 38.265625 -15.359375 L 37.609375 -15.359375 Z M 28.734375 -14.640625 L 28.953125 -14.640625 L 28.953125 -14.734375 Z M 27.0625 -13.46875 L 27.8125 -13.46875 L 27.8125 -14.21875 L 27.71875 -14.21875 L 27.0625 -13.921875 Z M 29.375 -13.46875 L 30.140625 -13.46875 L 30.140625 -14.21875 L 29.375 -14.21875 Z M 31.734375 -13.5 L 32.46875 -13.5 L 32.46875 -14.21875 L 31.734375 -14.21875 Z M 34.0625 -13.5 L 34.78125 -13.5 L 34.78125 -14.1875 L 34.0625 -14.1875 Z M 36.421875 -13.5 L 37.109375 -13.5 L 37.109375 -14.1875 L 36.421875 -14.1875 Z M 38.75 -13.5 L 39.4375 -13.5 L 39.4375 -14.1875 L 38.75 -14.1875 Z M 25.875 -12.28125 L 26.625 -12.28125 L 26.625 -13.0625 L 25.875 -13.0625 Z M 28.234375 -12.3125 L 28.953125 -12.3125 L 28.953125 -13.03125 L 28.234375 -13.03125 Z M 30.5625 -12.3125 L 31.28125 -12.3125 L 31.28125 -13.03125 L 30.5625 -13.03125 Z M 32.890625 -12.3125 L 33.609375 -12.3125 L 33.609375 -13.03125 L 32.890625 -13.03125 Z M 35.25 -12.3125 L 35.9375 -12.3125 L 35.9375 -13.03125 L 35.25 -13.03125 Z M 37.609375 -12.3125 L 38.265625 -12.3125 L 38.265625 -13 L 37.609375 -13 Z M 39.921875 -12.703125 L 40.625 -13 L 39.921875 -13 Z M 23.546875 -12.28125 L 24.3125 -12.28125 L 24.3125 -12.78125 L 23.546875 -12.453125 Z M 22.375 -11.109375 L 23.15625 -11.109375 L 23.15625 -11.890625 L 22.375 -11.890625 Z M 24.703125 -11.109375 L 25.484375 -11.109375 L 25.484375 -11.890625 L 24.703125 -11.890625 Z M 27.0625 -11.140625 L 27.8125 -11.140625 L 27.8125 -11.890625 L 27.0625 -11.890625 Z M 29.375 -11.140625 L 30.140625 -11.140625 L 30.140625 -11.890625 L 29.375 -11.890625 Z M 31.734375 -11.140625 L 32.46875 -11.140625 L 32.46875 -11.890625 L 31.734375 -11.890625 Z M 34.0625 -11.140625 L 34.78125 -11.140625 L 34.78125 -11.859375 L 34.0625 -11.859375 Z M 36.421875 -11.234375 L 37.109375 -11.53125 L 37.109375 -11.859375 L 36.421875 -11.859375 Z M 20.375 -11.109375 L 20.828125 -11.109375 L 20.828125 -11.296875 Z M 18.828125 -9.921875 L 19.65625 -9.921875 L 19.65625 -10.75 L 19.515625 -10.75 L 18.828125 -10.453125 Z M 21.1875 -9.921875 L 21.984375 -9.921875 L 21.984375 -10.75 L 21.1875 -10.75 Z M 23.515625 -9.953125 L 24.3125 -9.953125 L 24.3125 -10.75 L 23.515625 -10.75 Z M 25.875 -9.953125 L 26.625 -9.953125 L 26.625 -10.71875 L 25.875 -10.71875 Z M 28.203125 -9.953125 L 28.984375 -9.953125 L 28.984375 -10.71875 L 28.203125 -10.71875 Z M 30.5625 -9.953125 L 31.3125 -9.953125 L 31.3125 -10.71875 L 30.5625 -10.71875 Z M 32.890625 -9.953125 L 33.4375 -9.953125 L 33.640625 -10.0625 L 33.640625 -10.71875 L 32.890625 -10.71875 Z M 17.65625 -8.75 L 18.5 -8.75 L 18.5 -9.59375 L 17.65625 -9.59375 Z M 20.015625 -8.78125 L 20.828125 -8.78125 L 20.828125 -9.59375 L 20.015625 -9.59375 Z M 22.34375 -8.78125 L 23.15625 -8.78125 L 23.15625 -9.5625 L 22.34375 -9.5625 Z M 24.703125 -8.78125 L 25.484375 -8.78125 L 25.484375 -9.5625 L 24.703125 -9.5625 Z M 27.03125 -8.78125 L 27.8125 -8.78125 L 27.8125 -9.5625 L 27.03125 -9.5625 Z M 29.375 -8.78125 L 30.140625 -8.78125 L 30.140625 -9.5625 L 29.375 -9.5625 Z M 31.703125 -9.234375 L 32.421875 -9.53125 L 31.703125 -9.53125 Z M 15.328125 -8.75 L 16.1875 -8.75 L 16.1875 -9.328125 L 15.328125 -8.96875 Z M 14.15625 -7.5625 L 15.03125 -7.5625 L 15.03125 -8.453125 L 14.15625 -8.453125 Z M 16.515625 -7.5625 L 17.359375 -7.5625 L 17.359375 -8.421875 L 16.515625 -8.421875 Z M 18.828125 -7.59375 L 19.6875 -7.59375 L 19.6875 -8.421875 L 18.828125 -8.421875 Z M 21.1875 -7.59375 L 22.015625 -7.59375 L 22.015625 -8.421875 L 21.1875 -8.421875 Z M 23.515625 -7.59375 L 24.34375 -7.59375 L 24.34375 -8.421875 L 23.515625 -8.421875 Z M 25.875 -7.59375 L 26.65625 -7.59375 L 26.65625 -8.390625 L 25.875 -8.390625 Z M 28.203125 -7.734375 L 28.984375 -8.0625 L 28.984375 -8.390625 L 28.203125 -8.390625 Z M 12.015625 -7.5625 L 12.671875 -7.5625 L 12.671875 -7.828125 Z M 10.640625 -6.390625 L 11.53125 -6.390625 L 11.53125 -7.265625 L 11.328125 -7.265625 L 10.640625 -6.984375 Z M 12.96875 -6.390625 L 13.859375 -6.390625 L 13.859375 -7.265625 L 12.96875 -7.265625 Z M 15.328125 -6.421875 L 16.1875 -6.421875 L 16.1875 -7.265625 L 15.328125 -7.265625 Z M 17.65625 -6.421875 L 18.5 -6.421875 L 18.5 -7.265625 L 17.65625 -7.265625 Z M 20.015625 -6.421875 L 20.828125 -6.421875 L 20.828125 -7.234375 L 20.015625 -7.234375 Z M 22.34375 -6.421875 L 23.15625 -6.421875 L 23.15625 -7.234375 L 22.34375 -7.234375 Z M 24.703125 -6.421875 L 25.09375 -6.421875 L 25.484375 -6.578125 L 25.484375 -7.234375 L 24.703125 -7.234375 Z M 9.46875 -5.203125 L 10.390625 -5.203125 L 10.390625 -6.125 L 9.46875 -6.125 Z M 11.796875 -5.203125 L 12.703125 -5.203125 L 12.703125 -6.125 L 11.796875 -6.125 Z M 14.15625 -5.234375 L 15.03125 -5.234375 L 15.03125 -6.125 L 14.15625 -6.125 Z M 16.46875 -5.234375 L 17.359375 -5.234375 L 17.359375 -6.09375 L 16.46875 -6.09375 Z M 18.828125 -5.234375 L 19.6875 -5.234375 L 19.6875 -6.09375 L 18.828125 -6.09375 Z M 21.15625 -5.234375 L 22.015625 -5.234375 L 22.015625 -6.09375 L 21.15625 -6.09375 Z M 23.515625 -5.765625 L 24.3125 -6.09375 L 23.515625 -6.09375 Z M 7.109375 -5.203125 L 8.0625 -5.203125 L 8.0625 -5.859375 L 7.109375 -5.46875 Z M 5.921875 -4.03125 L 6.875 -4.03125 L 6.875 -4.984375 L 5.921875 -4.984375 Z M 8.28125 -4.03125 L 9.203125 -4.03125 L 9.203125 -4.984375 L 8.28125 -4.984375 Z M 10.640625 -4.0625 L 11.53125 -4.0625 L 11.53125 -4.953125 L 10.640625 -4.953125 Z M 12.96875 -4.0625 L 13.859375 -4.0625 L 13.859375 -4.953125 L 12.96875 -4.953125 Z M 15.296875 -4.0625 L 16.1875 -4.0625 L 16.1875 -4.953125 L 15.296875 -4.953125 Z M 17.65625 -4.0625 L 18.5 -4.0625 L 18.5 -4.953125 L 17.65625 -4.953125 Z M 19.984375 -4.265625 L 20.828125 -4.625 L 20.828125 -4.90625 L 19.984375 -4.90625 Z M 4.421875 -4.03125 L 4.546875 -4.03125 L 4.546875 -4.390625 L 4.15625 -4.21875 Z M 5.734375 -2.984375 L 5.734375 -3.796875 L 4.78125 -3.796875 L 4.78125 -3.734375 Z M 7.109375 -2.84375 L 8.0625 -2.84375 L 8.0625 -3.796875 L 7.109375 -3.796875 Z M 9.46875 -2.875 L 10.390625 -2.875 L 10.390625 -3.796875 L 9.46875 -3.796875 Z M 11.796875 -2.875 L 12.703125 -2.875 L 12.703125 -3.796875 L 11.796875 -3.796875 Z M 14.15625 -2.875 L 15.03125 -2.875 L 15.03125 -3.796875 L 14.15625 -3.796875 Z M 16.46875 -2.875 L 16.734375 -2.875 L 17.359375 -3.140625 L 17.359375 -3.765625 L 16.46875 -3.765625 Z M 6.875 -2.0625 L 6.875 -2.65625 L 6.125 -2.65625 Z M 8.28125 -1.703125 L 9.203125 -1.703125 L 9.203125 -2.65625 L 8.28125 -2.65625 Z M 10.609375 -1.703125 L 11.53125 -1.703125 L 11.53125 -2.625 L 10.609375 -2.625 Z M 12.96875 -1.703125 L 13.890625 -1.703125 L 13.890625 -2.625 L 12.96875 -2.625 Z M 15.296875 -2.265625 L 16.109375 -2.625 L 15.296875 -2.625 Z M 8.0625 -1.109375 L 8.0625 -1.46875 L 7.59375 -1.46875 Z M 9.4375 -0.53125 L 10.390625 -0.53125 L 10.390625 -1.46875 L 9.4375 -1.46875 Z M 11.796875 -0.78125 L 12.703125 -1.171875 L 12.703125 -1.46875 L 11.796875 -1.46875 Z M 9.234375 -0.203125 L 9.234375 -0.328125 L 9.046875 -0.328125 Z M 9.234375 -0.203125 "/></g></g></g><g fill="#bfbfbf" fill-opacity="0.502"><g transform="translate(8.526564, 78.109569)"><g><path d="M 40.984375 4.328125 L 7.734375 -9.765625 L 0.984375 -17.890625 L 0.984375 -28.046875 L 34 -42.03125 L 40.984375 -35.046875 L 40.984375 -25.84375 L 22.921875 -19.03125 L 34.265625 -14.734375 L 40.984375 -6.6875 Z M 33.28125 -5.28125 L 33.28125 -13.890625 L 9.53125 -22.859375 L 33.28125 -31.84375 L 33.28125 -40.453125 L 2.15625 -27.25 L 2.15625 -18.46875 Z M 39.796875 -26.703125 L 39.796875 -34.59375 L 34.453125 -39.921875 L 34.453125 -31.046875 L 34.390625 -31.015625 L 34.359375 -31.015625 L 33.703125 -30.765625 L 33.703125 -30.296875 L 34.421875 -30.296875 L 34.421875 -31.015625 Z M 32.53125 -29.125 L 33.25 -29.125 L 33.25 -29.875 L 32.53125 -29.875 Z M 34.859375 -29.125 L 35.578125 -29.125 L 35.578125 -29.84375 L 34.859375 -29.84375 Z M 30.171875 -29.125 L 30.921875 -29.125 L 30.921875 -29.703125 L 30.171875 -29.421875 Z M 28.984375 -27.9375 L 29.78125 -27.9375 L 29.78125 -28.6875 L 28.984375 -28.6875 Z M 31.34375 -27.9375 L 32.09375 -27.9375 L 32.09375 -28.6875 L 31.34375 -28.6875 Z M 33.671875 -27.9375 L 34.421875 -27.9375 L 34.421875 -28.6875 L 33.671875 -28.6875 Z M 36.03125 -27.96875 L 36.75 -27.96875 L 36.75 -28.6875 L 36.03125 -28.6875 Z M 26.65625 -27.9375 L 27.421875 -27.9375 L 27.421875 -28.359375 L 26.65625 -28.109375 Z M 25.484375 -26.765625 L 26.265625 -26.765625 L 26.265625 -27.546875 L 25.484375 -27.546875 Z M 27.84375 -26.765625 L 28.59375 -26.765625 L 28.59375 -27.546875 L 27.84375 -27.546875 Z M 30.171875 -26.765625 L 30.921875 -26.765625 L 30.921875 -27.546875 L 30.171875 -27.546875 Z M 32.5 -26.796875 L 33.25 -26.796875 L 33.25 -27.515625 L 32.5 -27.515625 Z M 34.859375 -26.796875 L 35.578125 -26.796875 L 35.578125 -27.515625 L 34.859375 -27.515625 Z M 37.171875 -26.796875 L 37.90625 -26.796875 L 37.90625 -27.515625 L 37.171875 -27.515625 Z M 23.15625 -26.765625 L 23.9375 -26.765625 L 23.9375 -27.0625 Z M 21.984375 -25.578125 L 22.796875 -25.578125 L 22.796875 -26.40625 L 22.203125 -26.40625 L 21.984375 -26.296875 Z M 24.3125 -25.578125 L 25.125 -25.578125 L 25.125 -26.40625 L 24.3125 -26.40625 Z M 26.65625 -25.578125 L 27.453125 -25.578125 L 27.453125 -26.375 L 26.65625 -26.375 Z M 28.984375 -25.609375 L 29.78125 -25.609375 L 29.78125 -26.375 L 28.984375 -26.375 Z M 31.34375 -25.609375 L 32.09375 -25.609375 L 32.09375 -26.375 L 31.34375 -26.375 Z M 33.671875 -25.609375 L 34.421875 -25.609375 L 34.421875 -26.375 L 33.671875 -26.375 Z M 36.03125 -25.609375 L 36.75 -25.609375 L 36.75 -26.375 L 36.03125 -26.375 Z M 38.359375 -26.078125 L 39.015625 -26.328125 L 38.359375 -26.328125 Z M 20.046875 -25.578125 L 20.46875 -25.578125 L 20.46875 -25.75 Z M 18.4375 -24.40625 L 19.296875 -24.40625 L 19.296875 -25.25 L 19.15625 -25.25 L 18.4375 -24.953125 Z M 20.796875 -24.40625 L 21.625 -24.40625 L 21.625 -25.21875 L 20.796875 -25.21875 Z M 23.125 -24.40625 L 23.9375 -24.40625 L 23.9375 -25.21875 L 23.125 -25.21875 Z M 25.484375 -24.40625 L 26.265625 -24.40625 L 26.265625 -25.21875 L 25.484375 -25.21875 Z M 27.8125 -24.4375 L 28.59375 -24.4375 L 28.59375 -25.21875 L 27.8125 -25.21875 Z M 30.171875 -24.4375 L 30.921875 -24.4375 L 30.921875 -25.1875 L 30.171875 -25.1875 Z M 32.5 -24.4375 L 33.28125 -24.4375 L 33.28125 -25.1875 L 32.5 -25.1875 Z M 34.859375 -24.765625 L 35.609375 -25.0625 L 35.609375 -25.1875 L 34.859375 -25.1875 Z M 17.265625 -23.21875 L 18.140625 -23.21875 L 18.140625 -24.078125 L 17.265625 -24.078125 Z M 19.625 -23.21875 L 20.46875 -23.21875 L 20.46875 -24.078125 L 19.625 -24.078125 Z M 21.953125 -23.21875 L 22.796875 -23.21875 L 22.796875 -24.078125 L 21.953125 -24.078125 Z M 24.3125 -23.25 L 25.125 -23.25 L 25.125 -24.078125 L 24.3125 -24.078125 Z M 26.625 -23.25 L 27.453125 -23.25 L 27.453125 -24.046875 L 26.625 -24.046875 Z M 28.984375 -23.25 L 29.78125 -23.25 L 29.78125 -24.046875 L 28.984375 -24.046875 Z M 31.3125 -23.421875 L 32.09375 -23.71875 L 32.09375 -24.046875 L 31.3125 -24.046875 Z M 14.9375 -23.21875 L 15.828125 -23.21875 L 15.828125 -23.984375 L 14.9375 -23.65625 Z M 14.640625 -22.171875 L 14.640625 -22.921875 L 13.75 -22.921875 L 13.75 -22.53125 Z M 16.109375 -22.046875 L 16.96875 -22.046875 L 16.96875 -22.921875 L 16.109375 -22.921875 Z M 18.4375 -22.046875 L 19.328125 -22.046875 L 19.328125 -22.921875 L 18.4375 -22.921875 Z M 20.765625 -22.046875 L 21.65625 -22.046875 L 21.65625 -22.890625 L 20.765625 -22.890625 Z M 23.125 -22.078125 L 23.984375 -22.078125 L 23.984375 -22.890625 L 23.125 -22.890625 Z M 25.484375 -22.078125 L 26.296875 -22.078125 L 26.296875 -22.890625 L 25.484375 -22.890625 Z M 27.8125 -22.109375 L 28.625 -22.40625 L 28.625 -22.890625 L 27.8125 -22.890625 Z M 18.140625 -20.859375 L 18.140625 -21.75 L 17.265625 -21.75 L 17.265625 -21.1875 Z M 19.625 -20.890625 L 20.46875 -20.890625 L 20.46875 -21.75 L 19.625 -21.75 Z M 21.953125 -20.890625 L 22.796875 -20.890625 L 22.796875 -21.75 L 21.953125 -21.75 Z M 24.3125 -20.890625 L 24.625 -20.890625 L 25.125 -21.09375 L 25.125 -21.75 L 24.3125 -21.75 Z M 26.625 -21.65625 L 26.796875 -21.71875 L 26.625 -21.71875 Z M 19.328125 -20.40625 L 19.328125 -20.609375 L 18.828125 -20.609375 Z M 21.15625 -19.71875 L 21.484375 -19.71875 L 21.65625 -19.78125 L 21.65625 -20.578125 L 20.765625 -20.578125 L 20.765625 -19.84375 Z M 23.125 -20.34375 L 23.75 -20.578125 L 23.125 -20.578125 Z M 39.765625 2.5625 L 39.796875 2.5625 L 39.796875 -6.21875 L 34.453125 -12.640625 L 34.453125 -3.703125 Z M 39.765625 2.5625 "/></g></g></g><g fill="#bfbfbf" fill-opacity="0.502"><g transform="translate(37.737128, 78.109569)"><g><path d="M 5.375 14.453125 L 0.09375 7.4375 L 0.125 7.40625 L 23.984375 -51.5 L 33.96875 -51.453125 L 38.546875 -44.453125 L 14.3125 14.453125 Z M 1.671875 6.75 L 9.296875 6.75 L 32.78125 -50.3125 L 24.765625 -50.3125 Z M 33.375 -48.546875 L 34.359375 -48.546875 L 34.359375 -48.78125 L 33.84375 -49.5625 L 33.765625 -49.5625 L 33.375 -48.578125 Z M 34.53125 -47.390625 L 35.25 -47.390625 L 34.625 -48.375 L 34.53125 -48.375 Z M 32.890625 -47.359375 L 33.21875 -47.359375 L 33.21875 -48.1875 Z M 33.34375 -46.21875 L 34.359375 -46.21875 L 34.359375 -47.234375 L 33.34375 -47.234375 Z M 35.703125 -46.21875 L 36 -46.21875 L 35.703125 -46.703125 Z M 32.171875 -45.046875 L 33.21875 -45.046875 L 33.21875 -46.0625 L 32.328125 -46.0625 L 32.171875 -45.65625 Z M 34.53125 -45.046875 L 35.546875 -45.046875 L 35.546875 -46.0625 L 34.53125 -46.0625 Z M 31.40625 -43.859375 L 32.0625 -43.859375 L 32.0625 -44.90625 L 31.875 -44.90625 Z M 33.34375 -43.859375 L 34.390625 -43.859375 L 34.390625 -44.90625 L 33.34375 -44.90625 Z M 35.671875 -43.859375 L 36.6875 -43.859375 L 36.6875 -44.875 L 35.671875 -44.875 Z M 32.171875 -42.6875 L 33.21875 -42.6875 L 33.21875 -43.734375 L 32.171875 -43.734375 Z M 34.53125 -42.6875 L 35.546875 -42.6875 L 35.546875 -43.734375 L 34.53125 -43.734375 Z M 36.84375 -43.375 L 37.015625 -43.734375 L 36.84375 -43.734375 Z M 30.984375 -41.5 L 32.0625 -41.5 L 32.0625 -42.578125 L 30.984375 -42.578125 Z M 33.3125 -41.5 L 34.390625 -41.5 L 34.390625 -42.578125 L 33.3125 -42.578125 Z M 35.671875 -41.53125 L 36.09375 -41.53125 L 36.515625 -42.578125 L 35.671875 -42.578125 Z M 29.96875 -40.328125 L 30.921875 -40.328125 L 30.921875 -41.4375 L 30.4375 -41.4375 Z M 32.171875 -40.328125 L 33.25 -40.328125 L 33.25 -41.4375 L 32.171875 -41.4375 Z M 34.484375 -40.359375 L 35.578125 -40.359375 L 35.578125 -41.40625 L 34.484375 -41.40625 Z M 30.984375 -39.140625 L 32.0625 -39.140625 L 32.0625 -40.25 L 30.984375 -40.25 Z M 33.3125 -39.171875 L 34.390625 -39.171875 L 34.390625 -40.25 L 33.3125 -40.25 Z M 29.484375 -39.140625 L 29.75 -39.140625 L 29.75 -39.765625 Z M 29.8125 -38 L 30.921875 -38 L 30.921875 -39.109375 L 29.8125 -39.109375 Z M 32.140625 -38 L 33.25 -38 L 33.25 -39.109375 L 32.140625 -39.109375 Z M 34.484375 -38 L 34.65625 -38 L 35.078125 -39.078125 L 34.484375 -39.078125 Z M 13.53125 13.265625 L 14.046875 11.953125 L 13.71875 11.953125 L 13.71875 11.40625 L 14.28125 11.40625 L 16.046875 7.140625 L 16.046875 6.6875 L 16.25 6.6875 L 17.421875 3.796875 L 17.203125 3.796875 L 17.203125 3.140625 L 17.6875 3.140625 L 18.875 0.328125 L 18.34375 0.328125 L 18.34375 -0.359375 L 19.03125 -0.359375 L 19.03125 -0.09375 L 19.484375 -1.21875 L 19.484375 -1.546875 L 19.625 -1.546875 L 20.765625 -4.328125 L 20.640625 -4.328125 L 20.640625 -5.078125 L 21.09375 -5.078125 L 22.203125 -7.796875 L 21.78125 -7.796875 L 21.78125 -8.609375 L 22.53125 -8.609375 L 22.921875 -9.5625 L 22.921875 -9.796875 L 23.03125 -9.796875 L 23.609375 -11.265625 L 22.921875 -11.265625 L 22.921875 -12.125 L 23.78125 -12.125 L 23.78125 -11.625 L 24.109375 -12.421875 L 24.078125 -12.421875 L 24.078125 -13.328125 L 24.46875 -13.328125 L 25.546875 -15.890625 L 25.21875 -15.890625 L 25.21875 -16.84375 L 25.90625 -16.84375 L 26.375 -17.921875 L 26.375 -18.015625 L 26.40625 -18.015625 L 26.984375 -19.390625 L 26.375 -19.390625 L 26.375 -20.375 L 27.34375 -20.375 L 27.34375 -20.3125 L 27.515625 -20.703125 L 27.515625 -21.546875 L 27.875 -21.546875 L 28.40625 -22.859375 L 27.515625 -22.859375 L 27.515625 -23.875 L 28.5625 -23.875 L 28.5625 -23.25 L 28.890625 -24.015625 L 28.65625 -24.015625 L 28.65625 -25.0625 L 29.3125 -25.0625 L 30.296875 -27.484375 L 29.8125 -27.484375 L 29.8125 -28.59375 L 30.765625 -28.59375 L 30.953125 -29.046875 L 30.953125 -29.78125 L 31.25 -29.78125 L 31.734375 -30.953125 L 30.953125 -30.953125 L 30.953125 -32.140625 L 32.09375 -32.140625 L 32.09375 -31.84375 L 32.234375 -32.140625 L 32.09375 -32.140625 L 32.09375 -33.28125 L 30.953125 -33.28125 L 30.953125 -34.453125 L 32.09375 -34.453125 L 32.09375 -33.3125 L 32.71875 -33.3125 L 33.1875 -34.453125 L 32.09375 -34.453125 L 32.09375 -35.609375 L 30.953125 -35.609375 L 30.953125 -34.453125 L 29.78125 -34.453125 L 29.78125 -35.640625 L 30.921875 -35.640625 L 30.921875 -36.78125 L 29.78125 -36.78125 L 29.78125 -37.96875 L 28.984375 -37.96875 L 28.625 -37.078125 L 28.625 -36.78125 L 29.78125 -36.78125 L 29.78125 -35.640625 L 28.59375 -35.640625 L 28.59375 -36.78125 L 28.5 -36.78125 L 28.046875 -35.640625 L 28.59375 -35.640625 L 28.59375 -34.453125 L 27.546875 -34.453125 L 27.421875 -34.125 L 27.421875 -33.3125 L 27.09375 -33.3125 L 26.59375 -32.09375 L 27.421875 -32.09375 L 27.421875 -30.984375 L 26.296875 -30.984375 L 26.296875 -31.40625 L 26.109375 -30.921875 L 26.234375 -30.921875 L 26.234375 -29.84375 L 25.640625 -29.84375 L 24.625 -27.390625 L 25.0625 -27.390625 L 25.0625 -26.375 L 24.203125 -26.375 L 23.875 -25.546875 L 23.875 -25.1875 L 23.75 -25.1875 L 23.1875 -23.875 L 23.84375 -23.875 L 23.84375 -22.859375 L 22.859375 -22.859375 L 22.859375 -23.0625 L 22.671875 -22.609375 L 22.671875 -21.71875 L 22.3125 -21.71875 L 21.75 -20.34375 L 22.671875 -20.34375 L 22.671875 -19.390625 L 21.71875 -19.390625 L 21.71875 -20.3125 L 21.265625 -19.15625 L 21.484375 -19.15625 L 21.484375 -18.25 L 20.859375 -18.25 L 19.78125 -15.625 L 20.3125 -15.625 L 20.3125 -14.765625 L 19.453125 -14.765625 L 19.09375 -13.921875 L 19.09375 -13.625 L 18.96875 -13.625 L 18.34375 -12.125 L 19.09375 -12.125 L 19.09375 -11.296875 L 18.28125 -11.296875 L 18.28125 -11.953125 L 17.859375 -10.9375 L 17.921875 -10.9375 L 17.921875 -10.125 L 17.53125 -10.125 L 16.40625 -7.40625 L 16.734375 -7.40625 L 16.734375 -6.65625 L 16.078125 -6.65625 L 14.9375 -3.859375 L 15.53125 -3.859375 L 15.53125 -3.171875 L 14.84375 -3.171875 L 14.84375 -3.609375 L 14.34375 -2.390625 L 14.34375 -2.03125 L 14.1875 -2.03125 L 13 0.8125 L 13.171875 0.8125 L 13.171875 1.4375 L 12.78125 1.4375 L 11.5625 4.359375 L 11.953125 4.359375 L 11.953125 4.90625 L 11.40625 4.90625 L 11.40625 4.75 L 10.09375 7.921875 L 10.21875 8.15625 L 10.21875 7.890625 L 10.8125 7.890625 L 10.8125 8.453125 L 10.421875 8.453125 Z M 30.953125 -36.8125 L 32.09375 -36.8125 L 32.09375 -37.9375 L 30.953125 -37.9375 Z M 33.3125 -36.8125 L 34.171875 -36.8125 L 34.421875 -37.46875 L 34.421875 -37.9375 L 33.3125 -37.9375 Z M 32.140625 -35.640625 L 33.25 -35.640625 L 33.25 -36.78125 L 32.140625 -36.78125 Z M 33.3125 -34.78125 L 33.640625 -35.609375 L 33.3125 -35.609375 Z M 28.625 -33.3125 L 28.625 -34.453125 L 29.78125 -34.453125 L 29.78125 -33.3125 Z M 27.484375 -32.171875 L 27.484375 -33.28125 L 28.59375 -33.28125 L 28.59375 -32.171875 Z M 29.78125 -32.140625 L 29.78125 -33.28125 L 30.953125 -33.28125 L 30.953125 -32.140625 Z M 28.625 -30.984375 L 28.625 -32.09375 L 29.78125 -32.09375 L 29.78125 -30.984375 Z M 29.8125 -29.8125 L 29.8125 -30.953125 L 30.921875 -30.953125 L 30.921875 -29.8125 Z M 27.484375 -29.84375 L 27.484375 -30.921875 L 28.5625 -30.921875 L 28.5625 -29.84375 Z M 28.65625 -28.65625 L 28.65625 -29.78125 L 29.75 -29.78125 L 29.75 -28.65625 Z M 26.328125 -28.65625 L 26.328125 -29.75 L 27.421875 -29.75 L 27.421875 -28.65625 Z M 27.484375 -27.515625 L 27.484375 -28.59375 L 28.5625 -28.59375 L 28.5625 -27.515625 Z M 25.15625 -27.515625 L 25.15625 -28.5625 L 26.234375 -28.5625 L 26.234375 -27.515625 Z M 26.328125 -26.328125 L 26.328125 -27.421875 L 27.390625 -27.421875 L 27.390625 -26.328125 Z M 28.65625 -26.328125 L 28.65625 -27.421875 L 29.75 -27.421875 L 29.75 -26.328125 Z M 25.1875 -25.1875 L 25.1875 -26.234375 L 26.203125 -26.234375 L 26.203125 -25.1875 Z M 27.515625 -25.1875 L 27.515625 -26.234375 L 28.5625 -26.234375 L 28.5625 -25.1875 Z M 24.015625 -24.046875 L 24.015625 -25.0625 L 25.03125 -25.0625 L 25.03125 -24.046875 Z M 26.328125 -24.015625 L 26.328125 -25.0625 L 27.390625 -25.0625 L 27.390625 -24.015625 Z M 25.1875 -22.859375 L 25.1875 -23.875 L 26.203125 -23.875 L 26.203125 -22.859375 Z M 24.046875 -21.71875 L 24.046875 -22.703125 L 25.03125 -22.703125 L 25.03125 -21.71875 Z M 26.375 -21.71875 L 26.375 -22.703125 L 27.34375 -22.703125 L 27.34375 -21.71875 Z M 22.859375 -20.578125 L 22.859375 -21.515625 L 23.84375 -21.515625 L 23.84375 -20.578125 Z M 25.1875 -20.53125 L 25.1875 -21.515625 L 26.203125 -21.515625 L 26.203125 -20.53125 Z M 24.046875 -19.390625 L 24.046875 -20.34375 L 25.03125 -20.34375 L 25.03125 -19.390625 Z M 25.21875 -18.21875 L 25.21875 -19.1875 L 26.171875 -19.1875 L 26.171875 -18.21875 Z M 22.890625 -18.25 L 22.890625 -19.15625 L 23.8125 -19.15625 L 23.8125 -18.25 Z M 24.046875 -17.0625 L 24.046875 -18.015625 L 25 -18.015625 L 25 -17.0625 Z M 21.71875 -17.0625 L 21.71875 -17.984375 L 22.671875 -17.984375 L 22.671875 -17.0625 Z M 22.890625 -15.921875 L 22.890625 -16.84375 L 23.8125 -16.84375 L 23.8125 -15.921875 Z M 20.578125 -15.921875 L 20.578125 -16.796875 L 21.484375 -16.796875 L 21.484375 -15.921875 Z M 21.75 -14.734375 L 21.75 -15.65625 L 22.640625 -15.65625 L 22.640625 -14.734375 Z M 24.078125 -14.734375 L 24.078125 -15.65625 L 25 -15.65625 L 25 -14.734375 Z M 20.609375 -13.59375 L 20.609375 -14.484375 L 21.453125 -14.484375 L 21.453125 -13.59375 Z M 22.890625 -13.59375 L 22.890625 -14.484375 L 23.8125 -14.484375 L 23.8125 -13.59375 Z M 19.421875 -12.453125 L 19.421875 -13.296875 L 20.28125 -13.296875 L 20.28125 -12.453125 Z M 21.75 -12.453125 L 21.75 -13.296875 L 22.640625 -13.296875 L 22.640625 -12.453125 Z M 20.609375 -11.265625 L 20.609375 -12.125 L 21.453125 -12.125 L 21.453125 -11.265625 Z M 19.453125 -10.125 L 19.453125 -10.9375 L 20.28125 -10.9375 L 20.28125 -10.125 Z M 21.78125 -10.125 L 21.78125 -10.9375 L 22.609375 -10.9375 L 22.609375 -10.125 Z M 20.609375 -8.9375 L 20.609375 -9.796875 L 21.421875 -9.796875 L 21.421875 -8.9375 Z M 18.28125 -8.96875 L 18.28125 -9.765625 L 19.09375 -9.765625 L 19.09375 -8.96875 Z M 17.125 -7.828125 L 17.125 -8.578125 L 17.921875 -8.578125 L 17.921875 -7.828125 Z M 19.453125 -7.796875 L 19.453125 -8.578125 L 20.25 -8.578125 L 20.25 -7.796875 Z M 20.640625 -6.609375 L 20.640625 -7.4375 L 21.421875 -7.4375 L 21.421875 -6.609375 Z M 18.3125 -6.65625 L 18.3125 -7.40625 L 19.0625 -7.40625 L 19.0625 -6.65625 Z M 19.453125 -5.46875 L 19.453125 -6.25 L 20.25 -6.25 L 20.25 -5.46875 Z M 17.171875 -5.5 L 17.171875 -6.21875 L 17.890625 -6.21875 L 17.890625 -5.5 Z M 18.3125 -4.328125 L 18.3125 -5.078125 L 19.0625 -5.078125 L 19.0625 -4.328125 Z M 15.984375 -4.328125 L 15.984375 -5.046875 L 16.703125 -5.046875 L 16.703125 -4.328125 Z M 17.171875 -3.171875 L 17.171875 -3.890625 L 17.890625 -3.890625 L 17.890625 -3.171875 Z M 19.484375 -3.140625 L 19.484375 -3.890625 L 20.25 -3.890625 L 20.25 -3.140625 Z M 16.015625 -2.03125 L 16.015625 -2.71875 L 16.703125 -2.71875 L 16.703125 -2.03125 Z M 18.34375 -2 L 18.34375 -2.71875 L 19.0625 -2.71875 L 19.0625 -2 Z M 14.875 -0.859375 L 14.875 -1.546875 L 15.53125 -1.546875 L 15.53125 -0.859375 Z M 17.171875 -0.859375 L 17.171875 -1.546875 L 17.890625 -1.546875 L 17.890625 -0.859375 Z M 13.6875 0.296875 L 13.6875 -0.359375 L 14.34375 -0.359375 L 14.34375 0.296875 Z M 16.015625 0.296875 L 16.015625 -0.359375 L 16.671875 -0.359375 L 16.671875 0.296875 Z M 14.875 1.46875 L 14.875 0.8125 L 15.5 0.8125 L 15.5 1.46875 Z M 17.203125 1.46875 L 17.203125 0.8125 L 17.859375 0.8125 L 17.859375 1.46875 Z M 13.71875 2.625 L 13.71875 2 L 14.34375 2 L 14.34375 2.625 Z M 16.046875 2.625 L 16.046875 2 L 16.671875 2 L 16.671875 2.625 Z M 12.546875 3.765625 L 12.546875 3.171875 L 13.140625 3.171875 L 13.140625 3.765625 Z M 14.875 3.796875 L 14.875 3.171875 L 15.5 3.171875 L 15.5 3.796875 Z M 16.046875 4.953125 L 16.046875 4.328125 L 16.671875 4.328125 L 16.671875 4.953125 Z M 13.71875 4.953125 L 13.71875 4.359375 L 14.3125 4.359375 L 14.3125 4.953125 Z M 14.90625 6.09375 L 14.90625 5.5 L 15.5 5.5 L 15.5 6.09375 Z M 12.578125 6.09375 L 12.578125 5.53125 L 13.140625 5.53125 L 13.140625 6.09375 Z M 13.71875 7.265625 L 13.71875 6.6875 L 14.3125 6.6875 L 14.3125 7.265625 Z M 11.40625 7.265625 L 11.40625 6.71875 L 11.953125 6.71875 L 11.953125 7.265625 Z M 14.90625 8.421875 L 14.90625 7.859375 L 15.453125 7.859375 L 15.453125 8.421875 Z M 12.578125 8.453125 L 12.578125 7.890625 L 13.140625 7.890625 L 13.140625 8.453125 Z M 11.40625 9.625 L 11.40625 9.046875 L 11.953125 9.046875 L 11.953125 9.625 Z M 13.71875 9.625 L 13.71875 9.046875 L 14.3125 9.046875 L 14.3125 9.625 Z M 12.578125 10.78125 L 12.578125 10.21875 L 13.140625 10.21875 L 13.140625 10.78125 Z M 12.578125 10.78125 "/></g></g></g><g fill="#bfbfbf" fill-opacity="0.502"><g transform="translate(62.231498, 78.109569)"><g><path d="M 9.4375 1.5 L 2.421875 -4.09375 L 2.421875 -14.671875 L 16.96875 -20.203125 L 9.171875 -23.125 L 2.421875 -31.21875 L 2.421875 -42.21875 L 35.578125 -28.171875 L 42.421875 -22.734375 L 42.421875 -12.484375 Z M 3.609375 -5.28125 L 34.71875 -18.46875 L 34.71875 -27.25 L 3.609375 -40.453125 L 3.609375 -31.875 L 27.34375 -22.859375 L 3.609375 -13.890625 Z M 41.234375 -13.359375 L 41.234375 -22.140625 L 35.90625 -26.4375 L 35.90625 -17.6875 L 35.28125 -17.421875 L 35.28125 -17 L 35.9375 -17 L 35.9375 -17.65625 Z M 34.09375 -15.828125 L 34.78125 -15.828125 L 34.78125 -16.515625 L 34.09375 -16.515625 Z M 36.421875 -15.859375 L 37.109375 -15.859375 L 37.109375 -16.515625 L 36.421875 -16.515625 Z M 31.734375 -15.828125 L 32.46875 -15.828125 L 32.46875 -16.21875 L 31.734375 -15.921875 Z M 30.5625 -14.640625 L 31.28125 -14.640625 L 31.28125 -15.359375 L 30.5625 -15.359375 Z M 32.921875 -14.640625 L 33.609375 -14.640625 L 33.609375 -15.359375 L 32.921875 -15.359375 Z M 35.25 -14.671875 L 35.9375 -14.671875 L 35.9375 -15.359375 L 35.25 -15.359375 Z M 37.609375 -14.671875 L 38.265625 -14.671875 L 38.265625 -15.359375 L 37.609375 -15.359375 Z M 28.734375 -14.640625 L 28.953125 -14.640625 L 28.953125 -14.734375 Z M 27.0625 -13.46875 L 27.8125 -13.46875 L 27.8125 -14.21875 L 27.71875 -14.21875 L 27.0625 -13.921875 Z M 29.375 -13.46875 L 30.140625 -13.46875 L 30.140625 -14.21875 L 29.375 -14.21875 Z M 31.734375 -13.5 L 32.46875 -13.5 L 32.46875 -14.21875 L 31.734375 -14.21875 Z M 34.0625 -13.5 L 34.78125 -13.5 L 34.78125 -14.1875 L 34.0625 -14.1875 Z M 36.421875 -13.5 L 37.109375 -13.5 L 37.109375 -14.1875 L 36.421875 -14.1875 Z M 38.75 -13.5 L 39.4375 -13.5 L 39.4375 -14.1875 L 38.75 -14.1875 Z M 25.875 -12.28125 L 26.625 -12.28125 L 26.625 -13.0625 L 25.875 -13.0625 Z M 28.234375 -12.3125 L 28.953125 -12.3125 L 28.953125 -13.03125 L 28.234375 -13.03125 Z M 30.5625 -12.3125 L 31.28125 -12.3125 L 31.28125 -13.03125 L 30.5625 -13.03125 Z M 32.890625 -12.3125 L 33.609375 -12.3125 L 33.609375 -13.03125 L 32.890625 -13.03125 Z M 35.25 -12.3125 L 35.9375 -12.3125 L 35.9375 -13.03125 L 35.25 -13.03125 Z M 37.609375 -12.3125 L 38.265625 -12.3125 L 38.265625 -13 L 37.609375 -13 Z M 39.921875 -12.703125 L 40.625 -13 L 39.921875 -13 Z M 23.546875 -12.28125 L 24.3125 -12.28125 L 24.3125 -12.78125 L 23.546875 -12.453125 Z M 22.375 -11.109375 L 23.15625 -11.109375 L 23.15625 -11.890625 L 22.375 -11.890625 Z M 24.703125 -11.109375 L 25.484375 -11.109375 L 25.484375 -11.890625 L 24.703125 -11.890625 Z M 27.0625 -11.140625 L 27.8125 -11.140625 L 27.8125 -11.890625 L 27.0625 -11.890625 Z M 29.375 -11.140625 L 30.140625 -11.140625 L 30.140625 -11.890625 L 29.375 -11.890625 Z M 31.734375 -11.140625 L 32.46875 -11.140625 L 32.46875 -11.890625 L 31.734375 -11.890625 Z M 34.0625 -11.140625 L 34.78125 -11.140625 L 34.78125 -11.859375 L 34.0625 -11.859375 Z M 36.421875 -11.234375 L 37.109375 -11.53125 L 37.109375 -11.859375 L 36.421875 -11.859375 Z M 20.375 -11.109375 L 20.828125 -11.109375 L 20.828125 -11.296875 Z M 18.828125 -9.921875 L 19.65625 -9.921875 L 19.65625 -10.75 L 19.515625 -10.75 L 18.828125 -10.453125 Z M 21.1875 -9.921875 L 21.984375 -9.921875 L 21.984375 -10.75 L 21.1875 -10.75 Z M 23.515625 -9.953125 L 24.3125 -9.953125 L 24.3125 -10.75 L 23.515625 -10.75 Z M 25.875 -9.953125 L 26.625 -9.953125 L 26.625 -10.71875 L 25.875 -10.71875 Z M 28.203125 -9.953125 L 28.984375 -9.953125 L 28.984375 -10.71875 L 28.203125 -10.71875 Z M 30.5625 -9.953125 L 31.3125 -9.953125 L 31.3125 -10.71875 L 30.5625 -10.71875 Z M 32.890625 -9.953125 L 33.4375 -9.953125 L 33.640625 -10.0625 L 33.640625 -10.71875 L 32.890625 -10.71875 Z M 17.65625 -8.75 L 18.5 -8.75 L 18.5 -9.59375 L 17.65625 -9.59375 Z M 20.015625 -8.78125 L 20.828125 -8.78125 L 20.828125 -9.59375 L 20.015625 -9.59375 Z M 22.34375 -8.78125 L 23.15625 -8.78125 L 23.15625 -9.5625 L 22.34375 -9.5625 Z M 24.703125 -8.78125 L 25.484375 -8.78125 L 25.484375 -9.5625 L 24.703125 -9.5625 Z M 27.03125 -8.78125 L 27.8125 -8.78125 L 27.8125 -9.5625 L 27.03125 -9.5625 Z M 29.375 -8.78125 L 30.140625 -8.78125 L 30.140625 -9.5625 L 29.375 -9.5625 Z M 31.703125 -9.234375 L 32.421875 -9.53125 L 31.703125 -9.53125 Z M 15.328125 -8.75 L 16.1875 -8.75 L 16.1875 -9.328125 L 15.328125 -8.96875 Z M 14.15625 -7.5625 L 15.03125 -7.5625 L 15.03125 -8.453125 L 14.15625 -8.453125 Z M 16.515625 -7.5625 L 17.359375 -7.5625 L 17.359375 -8.421875 L 16.515625 -8.421875 Z M 18.828125 -7.59375 L 19.6875 -7.59375 L 19.6875 -8.421875 L 18.828125 -8.421875 Z M 21.1875 -7.59375 L 22.015625 -7.59375 L 22.015625 -8.421875 L 21.1875 -8.421875 Z M 23.515625 -7.59375 L 24.34375 -7.59375 L 24.34375 -8.421875 L 23.515625 -8.421875 Z M 25.875 -7.59375 L 26.65625 -7.59375 L 26.65625 -8.390625 L 25.875 -8.390625 Z M 28.203125 -7.734375 L 28.984375 -8.0625 L 28.984375 -8.390625 L 28.203125 -8.390625 Z M 12.015625 -7.5625 L 12.671875 -7.5625 L 12.671875 -7.828125 Z M 10.640625 -6.390625 L 11.53125 -6.390625 L 11.53125 -7.265625 L 11.328125 -7.265625 L 10.640625 -6.984375 Z M 12.96875 -6.390625 L 13.859375 -6.390625 L 13.859375 -7.265625 L 12.96875 -7.265625 Z M 15.328125 -6.421875 L 16.1875 -6.421875 L 16.1875 -7.265625 L 15.328125 -7.265625 Z M 17.65625 -6.421875 L 18.5 -6.421875 L 18.5 -7.265625 L 17.65625 -7.265625 Z M 20.015625 -6.421875 L 20.828125 -6.421875 L 20.828125 -7.234375 L 20.015625 -7.234375 Z M 22.34375 -6.421875 L 23.15625 -6.421875 L 23.15625 -7.234375 L 22.34375 -7.234375 Z M 24.703125 -6.421875 L 25.09375 -6.421875 L 25.484375 -6.578125 L 25.484375 -7.234375 L 24.703125 -7.234375 Z M 9.46875 -5.203125 L 10.390625 -5.203125 L 10.390625 -6.125 L 9.46875 -6.125 Z M 11.796875 -5.203125 L 12.703125 -5.203125 L 12.703125 -6.125 L 11.796875 -6.125 Z M 14.15625 -5.234375 L 15.03125 -5.234375 L 15.03125 -6.125 L 14.15625 -6.125 Z M 16.46875 -5.234375 L 17.359375 -5.234375 L 17.359375 -6.09375 L 16.46875 -6.09375 Z M 18.828125 -5.234375 L 19.6875 -5.234375 L 19.6875 -6.09375 L 18.828125 -6.09375 Z M 21.15625 -5.234375 L 22.015625 -5.234375 L 22.015625 -6.09375 L 21.15625 -6.09375 Z M 23.515625 -5.765625 L 24.3125 -6.09375 L 23.515625 -6.09375 Z M 7.109375 -5.203125 L 8.0625 -5.203125 L 8.0625 -5.859375 L 7.109375 -5.46875 Z M 5.921875 -4.03125 L 6.875 -4.03125 L 6.875 -4.984375 L 5.921875 -4.984375 Z M 8.28125 -4.03125 L 9.203125 -4.03125 L 9.203125 -4.984375 L 8.28125 -4.984375 Z M 10.640625 -4.0625 L 11.53125 -4.0625 L 11.53125 -4.953125 L 10.640625 -4.953125 Z M 12.96875 -4.0625 L 13.859375 -4.0625 L 13.859375 -4.953125 L 12.96875 -4.953125 Z M 15.296875 -4.0625 L 16.1875 -4.0625 L 16.1875 -4.953125 L 15.296875 -4.953125 Z M 17.65625 -4.0625 L 18.5 -4.0625 L 18.5 -4.953125 L 17.65625 -4.953125 Z M 19.984375 -4.265625 L 20.828125 -4.625 L 20.828125 -4.90625 L 19.984375 -4.90625 Z M 4.421875 -4.03125 L 4.546875 -4.03125 L 4.546875 -4.390625 L 4.15625 -4.21875 Z M 5.734375 -2.984375 L 5.734375 -3.796875 L 4.78125 -3.796875 L 4.78125 -3.734375 Z M 7.109375 -2.84375 L 8.0625 -2.84375 L 8.0625 -3.796875 L 7.109375 -3.796875 Z M 9.46875 -2.875 L 10.390625 -2.875 L 10.390625 -3.796875 L 9.46875 -3.796875 Z M 11.796875 -2.875 L 12.703125 -2.875 L 12.703125 -3.796875 L 11.796875 -3.796875 Z M 14.15625 -2.875 L 15.03125 -2.875 L 15.03125 -3.796875 L 14.15625 -3.796875 Z M 16.46875 -2.875 L 16.734375 -2.875 L 17.359375 -3.140625 L 17.359375 -3.765625 L 16.46875 -3.765625 Z M 6.875 -2.0625 L 6.875 -2.65625 L 6.125 -2.65625 Z M 8.28125 -1.703125 L 9.203125 -1.703125 L 9.203125 -2.65625 L 8.28125 -2.65625 Z M 10.609375 -1.703125 L 11.53125 -1.703125 L 11.53125 -2.625 L 10.609375 -2.625 Z M 12.96875 -1.703125 L 13.890625 -1.703125 L 13.890625 -2.625 L 12.96875 -2.625 Z M 15.296875 -2.265625 L 16.109375 -2.625 L 15.296875 -2.625 Z M 8.0625 -1.109375 L 8.0625 -1.46875 L 7.59375 -1.46875 Z M 9.4375 -0.53125 L 10.390625 -0.53125 L 10.390625 -1.46875 L 9.4375 -1.46875 Z M 11.796875 -0.78125 L 12.703125 -1.171875 L 12.703125 -1.46875 L 11.796875 -1.46875 Z M 9.234375 -0.203125 L 9.234375 -0.328125 L 9.046875 -0.328125 Z M 9.234375 -0.203125 "/></g></g></g><g fill="#ff914d" fill-opacity="1"><g transform="translate(2.098405, 71.681412)"><g><path d="M 40.984375 4.328125 L 7.734375 -9.765625 L 0.984375 -17.890625 L 0.984375 -28.046875 L 34 -42.03125 L 40.984375 -35.046875 L 40.984375 -25.84375 L 22.921875 -19.03125 L 34.265625 -14.734375 L 40.984375 -6.6875 Z M 33.28125 -5.28125 L 33.28125 -13.890625 L 9.53125 -22.859375 L 33.28125 -31.84375 L 33.28125 -40.453125 L 2.15625 -27.25 L 2.15625 -18.46875 Z M 39.796875 -26.703125 L 39.796875 -34.59375 L 34.453125 -39.921875 L 34.453125 -31.046875 L 34.390625 -31.015625 L 34.359375 -31.015625 L 33.703125 -30.765625 L 33.703125 -30.296875 L 34.421875 -30.296875 L 34.421875 -31.015625 Z M 32.53125 -29.125 L 33.25 -29.125 L 33.25 -29.875 L 32.53125 -29.875 Z M 34.859375 -29.125 L 35.578125 -29.125 L 35.578125 -29.84375 L 34.859375 -29.84375 Z M 30.171875 -29.125 L 30.921875 -29.125 L 30.921875 -29.703125 L 30.171875 -29.421875 Z M 28.984375 -27.9375 L 29.78125 -27.9375 L 29.78125 -28.6875 L 28.984375 -28.6875 Z M 31.34375 -27.9375 L 32.09375 -27.9375 L 32.09375 -28.6875 L 31.34375 -28.6875 Z M 33.671875 -27.9375 L 34.421875 -27.9375 L 34.421875 -28.6875 L 33.671875 -28.6875 Z M 36.03125 -27.96875 L 36.75 -27.96875 L 36.75 -28.6875 L 36.03125 -28.6875 Z M 26.65625 -27.9375 L 27.421875 -27.9375 L 27.421875 -28.359375 L 26.65625 -28.109375 Z M 25.484375 -26.765625 L 26.265625 -26.765625 L 26.265625 -27.546875 L 25.484375 -27.546875 Z M 27.84375 -26.765625 L 28.59375 -26.765625 L 28.59375 -27.546875 L 27.84375 -27.546875 Z M 30.171875 -26.765625 L 30.921875 -26.765625 L 30.921875 -27.546875 L 30.171875 -27.546875 Z M 32.5 -26.796875 L 33.25 -26.796875 L 33.25 -27.515625 L 32.5 -27.515625 Z M 34.859375 -26.796875 L 35.578125 -26.796875 L 35.578125 -27.515625 L 34.859375 -27.515625 Z M 37.171875 -26.796875 L 37.90625 -26.796875 L 37.90625 -27.515625 L 37.171875 -27.515625 Z M 23.15625 -26.765625 L 23.9375 -26.765625 L 23.9375 -27.0625 Z M 21.984375 -25.578125 L 22.796875 -25.578125 L 22.796875 -26.40625 L 22.203125 -26.40625 L 21.984375 -26.296875 Z M 24.3125 -25.578125 L 25.125 -25.578125 L 25.125 -26.40625 L 24.3125 -26.40625 Z M 26.65625 -25.578125 L 27.453125 -25.578125 L 27.453125 -26.375 L 26.65625 -26.375 Z M 28.984375 -25.609375 L 29.78125 -25.609375 L 29.78125 -26.375 L 28.984375 -26.375 Z M 31.34375 -25.609375 L 32.09375 -25.609375 L 32.09375 -26.375 L 31.34375 -26.375 Z M 33.671875 -25.609375 L 34.421875 -25.609375 L 34.421875 -26.375 L 33.671875 -26.375 Z M 36.03125 -25.609375 L 36.75 -25.609375 L 36.75 -26.375 L 36.03125 -26.375 Z M 38.359375 -26.078125 L 39.015625 -26.328125 L 38.359375 -26.328125 Z M 20.046875 -25.578125 L 20.46875 -25.578125 L 20.46875 -25.75 Z M 18.4375 -24.40625 L 19.296875 -24.40625 L 19.296875 -25.25 L 19.15625 -25.25 L 18.4375 -24.953125 Z M 20.796875 -24.40625 L 21.625 -24.40625 L 21.625 -25.21875 L 20.796875 -25.21875 Z M 23.125 -24.40625 L 23.9375 -24.40625 L 23.9375 -25.21875 L 23.125 -25.21875 Z M 25.484375 -24.40625 L 26.265625 -24.40625 L 26.265625 -25.21875 L 25.484375 -25.21875 Z M 27.8125 -24.4375 L 28.59375 -24.4375 L 28.59375 -25.21875 L 27.8125 -25.21875 Z M 30.171875 -24.4375 L 30.921875 -24.4375 L 30.921875 -25.1875 L 30.171875 -25.1875 Z M 32.5 -24.4375 L 33.28125 -24.4375 L 33.28125 -25.1875 L 32.5 -25.1875 Z M 34.859375 -24.765625 L 35.609375 -25.0625 L 35.609375 -25.1875 L 34.859375 -25.1875 Z M 17.265625 -23.21875 L 18.140625 -23.21875 L 18.140625 -24.078125 L 17.265625 -24.078125 Z M 19.625 -23.21875 L 20.46875 -23.21875 L 20.46875 -24.078125 L 19.625 -24.078125 Z M 21.953125 -23.21875 L 22.796875 -23.21875 L 22.796875 -24.078125 L 21.953125 -24.078125 Z M 24.3125 -23.25 L 25.125 -23.25 L 25.125 -24.078125 L 24.3125 -24.078125 Z M 26.625 -23.25 L 27.453125 -23.25 L 27.453125 -24.046875 L 26.625 -24.046875 Z M 28.984375 -23.25 L 29.78125 -23.25 L 29.78125 -24.046875 L 28.984375 -24.046875 Z M 31.3125 -23.421875 L 32.09375 -23.71875 L 32.09375 -24.046875 L 31.3125 -24.046875 Z M 14.9375 -23.21875 L 15.828125 -23.21875 L 15.828125 -23.984375 L 14.9375 -23.65625 Z M 14.640625 -22.171875 L 14.640625 -22.921875 L 13.75 -22.921875 L 13.75 -22.53125 Z M 16.109375 -22.046875 L 16.96875 -22.046875 L 16.96875 -22.921875 L 16.109375 -22.921875 Z M 18.4375 -22.046875 L 19.328125 -22.046875 L 19.328125 -22.921875 L 18.4375 -22.921875 Z M 20.765625 -22.046875 L 21.65625 -22.046875 L 21.65625 -22.890625 L 20.765625 -22.890625 Z M 23.125 -22.078125 L 23.984375 -22.078125 L 23.984375 -22.890625 L 23.125 -22.890625 Z M 25.484375 -22.078125 L 26.296875 -22.078125 L 26.296875 -22.890625 L 25.484375 -22.890625 Z M 27.8125 -22.109375 L 28.625 -22.40625 L 28.625 -22.890625 L 27.8125 -22.890625 Z M 18.140625 -20.859375 L 18.140625 -21.75 L 17.265625 -21.75 L 17.265625 -21.1875 Z M 19.625 -20.890625 L 20.46875 -20.890625 L 20.46875 -21.75 L 19.625 -21.75 Z M 21.953125 -20.890625 L 22.796875 -20.890625 L 22.796875 -21.75 L 21.953125 -21.75 Z M 24.3125 -20.890625 L 24.625 -20.890625 L 25.125 -21.09375 L 25.125 -21.75 L 24.3125 -21.75 Z M 26.625 -21.65625 L 26.796875 -21.71875 L 26.625 -21.71875 Z M 19.328125 -20.40625 L 19.328125 -20.609375 L 18.828125 -20.609375 Z M 21.15625 -19.71875 L 21.484375 -19.71875 L 21.65625 -19.78125 L 21.65625 -20.578125 L 20.765625 -20.578125 L 20.765625 -19.84375 Z M 23.125 -20.34375 L 23.75 -20.578125 L 23.125 -20.578125 Z M 39.765625 2.5625 L 39.796875 2.5625 L 39.796875 -6.21875 L 34.453125 -12.640625 L 34.453125 -3.703125 Z M 39.765625 2.5625 "/></g></g></g><g fill="#ff914d" fill-opacity="1"><g transform="translate(31.30897, 71.681412)"><g><path d="M 5.375 14.453125 L 0.09375 7.4375 L 0.125 7.40625 L 23.984375 -51.5 L 33.96875 -51.453125 L 38.546875 -44.453125 L 14.3125 14.453125 Z M 1.671875 6.75 L 9.296875 6.75 L 32.78125 -50.3125 L 24.765625 -50.3125 Z M 33.375 -48.546875 L 34.359375 -48.546875 L 34.359375 -48.78125 L 33.84375 -49.5625 L 33.765625 -49.5625 L 33.375 -48.578125 Z M 34.53125 -47.390625 L 35.25 -47.390625 L 34.625 -48.375 L 34.53125 -48.375 Z M 32.890625 -47.359375 L 33.21875 -47.359375 L 33.21875 -48.1875 Z M 33.34375 -46.21875 L 34.359375 -46.21875 L 34.359375 -47.234375 L 33.34375 -47.234375 Z M 35.703125 -46.21875 L 36 -46.21875 L 35.703125 -46.703125 Z M 32.171875 -45.046875 L 33.21875 -45.046875 L 33.21875 -46.0625 L 32.328125 -46.0625 L 32.171875 -45.65625 Z M 34.53125 -45.046875 L 35.546875 -45.046875 L 35.546875 -46.0625 L 34.53125 -46.0625 Z M 31.40625 -43.859375 L 32.0625 -43.859375 L 32.0625 -44.90625 L 31.875 -44.90625 Z M 33.34375 -43.859375 L 34.390625 -43.859375 L 34.390625 -44.90625 L 33.34375 -44.90625 Z M 35.671875 -43.859375 L 36.6875 -43.859375 L 36.6875 -44.875 L 35.671875 -44.875 Z M 32.171875 -42.6875 L 33.21875 -42.6875 L 33.21875 -43.734375 L 32.171875 -43.734375 Z M 34.53125 -42.6875 L 35.546875 -42.6875 L 35.546875 -43.734375 L 34.53125 -43.734375 Z M 36.84375 -43.375 L 37.015625 -43.734375 L 36.84375 -43.734375 Z M 30.984375 -41.5 L 32.0625 -41.5 L 32.0625 -42.578125 L 30.984375 -42.578125 Z M 33.3125 -41.5 L 34.390625 -41.5 L 34.390625 -42.578125 L 33.3125 -42.578125 Z M 35.671875 -41.53125 L 36.09375 -41.53125 L 36.515625 -42.578125 L 35.671875 -42.578125 Z M 29.96875 -40.328125 L 30.921875 -40.328125 L 30.921875 -41.4375 L 30.4375 -41.4375 Z M 32.171875 -40.328125 L 33.25 -40.328125 L 33.25 -41.4375 L 32.171875 -41.4375 Z M 34.484375 -40.359375 L 35.578125 -40.359375 L 35.578125 -41.40625 L 34.484375 -41.40625 Z M 30.984375 -39.140625 L 32.0625 -39.140625 L 32.0625 -40.25 L 30.984375 -40.25 Z M 33.3125 -39.171875 L 34.390625 -39.171875 L 34.390625 -40.25 L 33.3125 -40.25 Z M 29.484375 -39.140625 L 29.75 -39.140625 L 29.75 -39.765625 Z M 29.8125 -38 L 30.921875 -38 L 30.921875 -39.109375 L 29.8125 -39.109375 Z M 32.140625 -38 L 33.25 -38 L 33.25 -39.109375 L 32.140625 -39.109375 Z M 34.484375 -38 L 34.65625 -38 L 35.078125 -39.078125 L 34.484375 -39.078125 Z M 13.53125 13.265625 L 14.046875 11.953125 L 13.71875 11.953125 L 13.71875 11.40625 L 14.28125 11.40625 L 16.046875 7.140625 L 16.046875 6.6875 L 16.25 6.6875 L 17.421875 3.796875 L 17.203125 3.796875 L 17.203125 3.140625 L 17.6875 3.140625 L 18.875 0.328125 L 18.34375 0.328125 L 18.34375 -0.359375 L 19.03125 -0.359375 L 19.03125 -0.09375 L 19.484375 -1.21875 L 19.484375 -1.546875 L 19.625 -1.546875 L 20.765625 -4.328125 L 20.640625 -4.328125 L 20.640625 -5.078125 L 21.09375 -5.078125 L 22.203125 -7.796875 L 21.78125 -7.796875 L 21.78125 -8.609375 L 22.53125 -8.609375 L 22.921875 -9.5625 L 22.921875 -9.796875 L 23.03125 -9.796875 L 23.609375 -11.265625 L 22.921875 -11.265625 L 22.921875 -12.125 L 23.78125 -12.125 L 23.78125 -11.625 L 24.109375 -12.421875 L 24.078125 -12.421875 L 24.078125 -13.328125 L 24.46875 -13.328125 L 25.546875 -15.890625 L 25.21875 -15.890625 L 25.21875 -16.84375 L 25.90625 -16.84375 L 26.375 -17.921875 L 26.375 -18.015625 L 26.40625 -18.015625 L 26.984375 -19.390625 L 26.375 -19.390625 L 26.375 -20.375 L 27.34375 -20.375 L 27.34375 -20.3125 L 27.515625 -20.703125 L 27.515625 -21.546875 L 27.875 -21.546875 L 28.40625 -22.859375 L 27.515625 -22.859375 L 27.515625 -23.875 L 28.5625 -23.875 L 28.5625 -23.25 L 28.890625 -24.015625 L 28.65625 -24.015625 L 28.65625 -25.0625 L 29.3125 -25.0625 L 30.296875 -27.484375 L 29.8125 -27.484375 L 29.8125 -28.59375 L 30.765625 -28.59375 L 30.953125 -29.046875 L 30.953125 -29.78125 L 31.25 -29.78125 L 31.734375 -30.953125 L 30.953125 -30.953125 L 30.953125 -32.140625 L 32.09375 -32.140625 L 32.09375 -31.84375 L 32.234375 -32.140625 L 32.09375 -32.140625 L 32.09375 -33.28125 L 30.953125 -33.28125 L 30.953125 -34.453125 L 32.09375 -34.453125 L 32.09375 -33.3125 L 32.71875 -33.3125 L 33.1875 -34.453125 L 32.09375 -34.453125 L 32.09375 -35.609375 L 30.953125 -35.609375 L 30.953125 -34.453125 L 29.78125 -34.453125 L 29.78125 -35.640625 L 30.921875 -35.640625 L 30.921875 -36.78125 L 29.78125 -36.78125 L 29.78125 -37.96875 L 28.984375 -37.96875 L 28.625 -37.078125 L 28.625 -36.78125 L 29.78125 -36.78125 L 29.78125 -35.640625 L 28.59375 -35.640625 L 28.59375 -36.78125 L 28.5 -36.78125 L 28.046875 -35.640625 L 28.59375 -35.640625 L 28.59375 -34.453125 L 27.546875 -34.453125 L 27.421875 -34.125 L 27.421875 -33.3125 L 27.09375 -33.3125 L 26.59375 -32.09375 L 27.421875 -32.09375 L 27.421875 -30.984375 L 26.296875 -30.984375 L 26.296875 -31.40625 L 26.109375 -30.921875 L 26.234375 -30.921875 L 26.234375 -29.84375 L 25.640625 -29.84375 L 24.625 -27.390625 L 25.0625 -27.390625 L 25.0625 -26.375 L 24.203125 -26.375 L 23.875 -25.546875 L 23.875 -25.1875 L 23.75 -25.1875 L 23.1875 -23.875 L 23.84375 -23.875 L 23.84375 -22.859375 L 22.859375 -22.859375 L 22.859375 -23.0625 L 22.671875 -22.609375 L 22.671875 -21.71875 L 22.3125 -21.71875 L 21.75 -20.34375 L 22.671875 -20.34375 L 22.671875 -19.390625 L 21.71875 -19.390625 L 21.71875 -20.3125 L 21.265625 -19.15625 L 21.484375 -19.15625 L 21.484375 -18.25 L 20.859375 -18.25 L 19.78125 -15.625 L 20.3125 -15.625 L 20.3125 -14.765625 L 19.453125 -14.765625 L 19.09375 -13.921875 L 19.09375 -13.625 L 18.96875 -13.625 L 18.34375 -12.125 L 19.09375 -12.125 L 19.09375 -11.296875 L 18.28125 -11.296875 L 18.28125 -11.953125 L 17.859375 -10.9375 L 17.921875 -10.9375 L 17.921875 -10.125 L 17.53125 -10.125 L 16.40625 -7.40625 L 16.734375 -7.40625 L 16.734375 -6.65625 L 16.078125 -6.65625 L 14.9375 -3.859375 L 15.53125 -3.859375 L 15.53125 -3.171875 L 14.84375 -3.171875 L 14.84375 -3.609375 L 14.34375 -2.390625 L 14.34375 -2.03125 L 14.1875 -2.03125 L 13 0.8125 L 13.171875 0.8125 L 13.171875 1.4375 L 12.78125 1.4375 L 11.5625 4.359375 L 11.953125 4.359375 L 11.953125 4.90625 L 11.40625 4.90625 L 11.40625 4.75 L 10.09375 7.921875 L 10.21875 8.15625 L 10.21875 7.890625 L 10.8125 7.890625 L 10.8125 8.453125 L 10.421875 8.453125 Z M 30.953125 -36.8125 L 32.09375 -36.8125 L 32.09375 -37.9375 L 30.953125 -37.9375 Z M 33.3125 -36.8125 L 34.171875 -36.8125 L 34.421875 -37.46875 L 34.421875 -37.9375 L 33.3125 -37.9375 Z M 32.140625 -35.640625 L 33.25 -35.640625 L 33.25 -36.78125 L 32.140625 -36.78125 Z M 33.3125 -34.78125 L 33.640625 -35.609375 L 33.3125 -35.609375 Z M 28.625 -33.3125 L 28.625 -34.453125 L 29.78125 -34.453125 L 29.78125 -33.3125 Z M 27.484375 -32.171875 L 27.484375 -33.28125 L 28.59375 -33.28125 L 28.59375 -32.171875 Z M 29.78125 -32.140625 L 29.78125 -33.28125 L 30.953125 -33.28125 L 30.953125 -32.140625 Z M 28.625 -30.984375 L 28.625 -32.09375 L 29.78125 -32.09375 L 29.78125 -30.984375 Z M 29.8125 -29.8125 L 29.8125 -30.953125 L 30.921875 -30.953125 L 30.921875 -29.8125 Z M 27.484375 -29.84375 L 27.484375 -30.921875 L 28.5625 -30.921875 L 28.5625 -29.84375 Z M 28.65625 -28.65625 L 28.65625 -29.78125 L 29.75 -29.78125 L 29.75 -28.65625 Z M 26.328125 -28.65625 L 26.328125 -29.75 L 27.421875 -29.75 L 27.421875 -28.65625 Z M 27.484375 -27.515625 L 27.484375 -28.59375 L 28.5625 -28.59375 L 28.5625 -27.515625 Z M 25.15625 -27.515625 L 25.15625 -28.5625 L 26.234375 -28.5625 L 26.234375 -27.515625 Z M 26.328125 -26.328125 L 26.328125 -27.421875 L 27.390625 -27.421875 L 27.390625 -26.328125 Z M 28.65625 -26.328125 L 28.65625 -27.421875 L 29.75 -27.421875 L 29.75 -26.328125 Z M 25.1875 -25.1875 L 25.1875 -26.234375 L 26.203125 -26.234375 L 26.203125 -25.1875 Z M 27.515625 -25.1875 L 27.515625 -26.234375 L 28.5625 -26.234375 L 28.5625 -25.1875 Z M 24.015625 -24.046875 L 24.015625 -25.0625 L 25.03125 -25.0625 L 25.03125 -24.046875 Z M 26.328125 -24.015625 L 26.328125 -25.0625 L 27.390625 -25.0625 L 27.390625 -24.015625 Z M 25.1875 -22.859375 L 25.1875 -23.875 L 26.203125 -23.875 L 26.203125 -22.859375 Z M 24.046875 -21.71875 L 24.046875 -22.703125 L 25.03125 -22.703125 L 25.03125 -21.71875 Z M 26.375 -21.71875 L 26.375 -22.703125 L 27.34375 -22.703125 L 27.34375 -21.71875 Z M 22.859375 -20.578125 L 22.859375 -21.515625 L 23.84375 -21.515625 L 23.84375 -20.578125 Z M 25.1875 -20.53125 L 25.1875 -21.515625 L 26.203125 -21.515625 L 26.203125 -20.53125 Z M 24.046875 -19.390625 L 24.046875 -20.34375 L 25.03125 -20.34375 L 25.03125 -19.390625 Z M 25.21875 -18.21875 L 25.21875 -19.1875 L 26.171875 -19.1875 L 26.171875 -18.21875 Z M 22.890625 -18.25 L 22.890625 -19.15625 L 23.8125 -19.15625 L 23.8125 -18.25 Z M 24.046875 -17.0625 L 24.046875 -18.015625 L 25 -18.015625 L 25 -17.0625 Z M 21.71875 -17.0625 L 21.71875 -17.984375 L 22.671875 -17.984375 L 22.671875 -17.0625 Z M 22.890625 -15.921875 L 22.890625 -16.84375 L 23.8125 -16.84375 L 23.8125 -15.921875 Z M 20.578125 -15.921875 L 20.578125 -16.796875 L 21.484375 -16.796875 L 21.484375 -15.921875 Z M 21.75 -14.734375 L 21.75 -15.65625 L 22.640625 -15.65625 L 22.640625 -14.734375 Z M 24.078125 -14.734375 L 24.078125 -15.65625 L 25 -15.65625 L 25 -14.734375 Z M 20.609375 -13.59375 L 20.609375 -14.484375 L 21.453125 -14.484375 L 21.453125 -13.59375 Z M 22.890625 -13.59375 L 22.890625 -14.484375 L 23.8125 -14.484375 L 23.8125 -13.59375 Z M 19.421875 -12.453125 L 19.421875 -13.296875 L 20.28125 -13.296875 L 20.28125 -12.453125 Z M 21.75 -12.453125 L 21.75 -13.296875 L 22.640625 -13.296875 L 22.640625 -12.453125 Z M 20.609375 -11.265625 L 20.609375 -12.125 L 21.453125 -12.125 L 21.453125 -11.265625 Z M 19.453125 -10.125 L 19.453125 -10.9375 L 20.28125 -10.9375 L 20.28125 -10.125 Z M 21.78125 -10.125 L 21.78125 -10.9375 L 22.609375 -10.9375 L 22.609375 -10.125 Z M 20.609375 -8.9375 L 20.609375 -9.796875 L 21.421875 -9.796875 L 21.421875 -8.9375 Z M 18.28125 -8.96875 L 18.28125 -9.765625 L 19.09375 -9.765625 L 19.09375 -8.96875 Z M 17.125 -7.828125 L 17.125 -8.578125 L 17.921875 -8.578125 L 17.921875 -7.828125 Z M 19.453125 -7.796875 L 19.453125 -8.578125 L 20.25 -8.578125 L 20.25 -7.796875 Z M 20.640625 -6.609375 L 20.640625 -7.4375 L 21.421875 -7.4375 L 21.421875 -6.609375 Z M 18.3125 -6.65625 L 18.3125 -7.40625 L 19.0625 -7.40625 L 19.0625 -6.65625 Z M 19.453125 -5.46875 L 19.453125 -6.25 L 20.25 -6.25 L 20.25 -5.46875 Z M 17.171875 -5.5 L 17.171875 -6.21875 L 17.890625 -6.21875 L 17.890625 -5.5 Z M 18.3125 -4.328125 L 18.3125 -5.078125 L 19.0625 -5.078125 L 19.0625 -4.328125 Z M 15.984375 -4.328125 L 15.984375 -5.046875 L 16.703125 -5.046875 L 16.703125 -4.328125 Z M 17.171875 -3.171875 L 17.171875 -3.890625 L 17.890625 -3.890625 L 17.890625 -3.171875 Z M 19.484375 -3.140625 L 19.484375 -3.890625 L 20.25 -3.890625 L 20.25 -3.140625 Z M 16.015625 -2.03125 L 16.015625 -2.71875 L 16.703125 -2.71875 L 16.703125 -2.03125 Z M 18.34375 -2 L 18.34375 -2.71875 L 19.0625 -2.71875 L 19.0625 -2 Z M 14.875 -0.859375 L 14.875 -1.546875 L 15.53125 -1.546875 L 15.53125 -0.859375 Z M 17.171875 -0.859375 L 17.171875 -1.546875 L 17.890625 -1.546875 L 17.890625 -0.859375 Z M 13.6875 0.296875 L 13.6875 -0.359375 L 14.34375 -0.359375 L 14.34375 0.296875 Z M 16.015625 0.296875 L 16.015625 -0.359375 L 16.671875 -0.359375 L 16.671875 0.296875 Z M 14.875 1.46875 L 14.875 0.8125 L 15.5 0.8125 L 15.5 1.46875 Z M 17.203125 1.46875 L 17.203125 0.8125 L 17.859375 0.8125 L 17.859375 1.46875 Z M 13.71875 2.625 L 13.71875 2 L 14.34375 2 L 14.34375 2.625 Z M 16.046875 2.625 L 16.046875 2 L 16.671875 2 L 16.671875 2.625 Z M 12.546875 3.765625 L 12.546875 3.171875 L 13.140625 3.171875 L 13.140625 3.765625 Z M 14.875 3.796875 L 14.875 3.171875 L 15.5 3.171875 L 15.5 3.796875 Z M 16.046875 4.953125 L 16.046875 4.328125 L 16.671875 4.328125 L 16.671875 4.953125 Z M 13.71875 4.953125 L 13.71875 4.359375 L 14.3125 4.359375 L 14.3125 4.953125 Z M 14.90625 6.09375 L 14.90625 5.5 L 15.5 5.5 L 15.5 6.09375 Z M 12.578125 6.09375 L 12.578125 5.53125 L 13.140625 5.53125 L 13.140625 6.09375 Z M 13.71875 7.265625 L 13.71875 6.6875 L 14.3125 6.6875 L 14.3125 7.265625 Z M 11.40625 7.265625 L 11.40625 6.71875 L 11.953125 6.71875 L 11.953125 7.265625 Z M 14.90625 8.421875 L 14.90625 7.859375 L 15.453125 7.859375 L 15.453125 8.421875 Z M 12.578125 8.453125 L 12.578125 7.890625 L 13.140625 7.890625 L 13.140625 8.453125 Z M 11.40625 9.625 L 11.40625 9.046875 L 11.953125 9.046875 L 11.953125 9.625 Z M 13.71875 9.625 L 13.71875 9.046875 L 14.3125 9.046875 L 14.3125 9.625 Z M 12.578125 10.78125 L 12.578125 10.21875 L 13.140625 10.21875 L 13.140625 10.78125 Z M 12.578125 10.78125 "/></g></g></g><g fill="#ff914d" fill-opacity="1"><g transform="translate(55.80334, 71.681412)"><g><path d="M 9.4375 1.5 L 2.421875 -4.09375 L 2.421875 -14.671875 L 16.96875 -20.203125 L 9.171875 -23.125 L 2.421875 -31.21875 L 2.421875 -42.21875 L 35.578125 -28.171875 L 42.421875 -22.734375 L 42.421875 -12.484375 Z M 3.609375 -5.28125 L 34.71875 -18.46875 L 34.71875 -27.25 L 3.609375 -40.453125 L 3.609375 -31.875 L 27.34375 -22.859375 L 3.609375 -13.890625 Z M 41.234375 -13.359375 L 41.234375 -22.140625 L 35.90625 -26.4375 L 35.90625 -17.6875 L 35.28125 -17.421875 L 35.28125 -17 L 35.9375 -17 L 35.9375 -17.65625 Z M 34.09375 -15.828125 L 34.78125 -15.828125 L 34.78125 -16.515625 L 34.09375 -16.515625 Z M 36.421875 -15.859375 L 37.109375 -15.859375 L 37.109375 -16.515625 L 36.421875 -16.515625 Z M 31.734375 -15.828125 L 32.46875 -15.828125 L 32.46875 -16.21875 L 31.734375 -15.921875 Z M 30.5625 -14.640625 L 31.28125 -14.640625 L 31.28125 -15.359375 L 30.5625 -15.359375 Z M 32.921875 -14.640625 L 33.609375 -14.640625 L 33.609375 -15.359375 L 32.921875 -15.359375 Z M 35.25 -14.671875 L 35.9375 -14.671875 L 35.9375 -15.359375 L 35.25 -15.359375 Z M 37.609375 -14.671875 L 38.265625 -14.671875 L 38.265625 -15.359375 L 37.609375 -15.359375 Z M 28.734375 -14.640625 L 28.953125 -14.640625 L 28.953125 -14.734375 Z M 27.0625 -13.46875 L 27.8125 -13.46875 L 27.8125 -14.21875 L 27.71875 -14.21875 L 27.0625 -13.921875 Z M 29.375 -13.46875 L 30.140625 -13.46875 L 30.140625 -14.21875 L 29.375 -14.21875 Z M 31.734375 -13.5 L 32.46875 -13.5 L 32.46875 -14.21875 L 31.734375 -14.21875 Z M 34.0625 -13.5 L 34.78125 -13.5 L 34.78125 -14.1875 L 34.0625 -14.1875 Z M 36.421875 -13.5 L 37.109375 -13.5 L 37.109375 -14.1875 L 36.421875 -14.1875 Z M 38.75 -13.5 L 39.4375 -13.5 L 39.4375 -14.1875 L 38.75 -14.1875 Z M 25.875 -12.28125 L 26.625 -12.28125 L 26.625 -13.0625 L 25.875 -13.0625 Z M 28.234375 -12.3125 L 28.953125 -12.3125 L 28.953125 -13.03125 L 28.234375 -13.03125 Z M 30.5625 -12.3125 L 31.28125 -12.3125 L 31.28125 -13.03125 L 30.5625 -13.03125 Z M 32.890625 -12.3125 L 33.609375 -12.3125 L 33.609375 -13.03125 L 32.890625 -13.03125 Z M 35.25 -12.3125 L 35.9375 -12.3125 L 35.9375 -13.03125 L 35.25 -13.03125 Z M 37.609375 -12.3125 L 38.265625 -12.3125 L 38.265625 -13 L 37.609375 -13 Z M 39.921875 -12.703125 L 40.625 -13 L 39.921875 -13 Z M 23.546875 -12.28125 L 24.3125 -12.28125 L 24.3125 -12.78125 L 23.546875 -12.453125 Z M 22.375 -11.109375 L 23.15625 -11.109375 L 23.15625 -11.890625 L 22.375 -11.890625 Z M 24.703125 -11.109375 L 25.484375 -11.109375 L 25.484375 -11.890625 L 24.703125 -11.890625 Z M 27.0625 -11.140625 L 27.8125 -11.140625 L 27.8125 -11.890625 L 27.0625 -11.890625 Z M 29.375 -11.140625 L 30.140625 -11.140625 L 30.140625 -11.890625 L 29.375 -11.890625 Z M 31.734375 -11.140625 L 32.46875 -11.140625 L 32.46875 -11.890625 L 31.734375 -11.890625 Z M 34.0625 -11.140625 L 34.78125 -11.140625 L 34.78125 -11.859375 L 34.0625 -11.859375 Z M 36.421875 -11.234375 L 37.109375 -11.53125 L 37.109375 -11.859375 L 36.421875 -11.859375 Z M 20.375 -11.109375 L 20.828125 -11.109375 L 20.828125 -11.296875 Z M 18.828125 -9.921875 L 19.65625 -9.921875 L 19.65625 -10.75 L 19.515625 -10.75 L 18.828125 -10.453125 Z M 21.1875 -9.921875 L 21.984375 -9.921875 L 21.984375 -10.75 L 21.1875 -10.75 Z M 23.515625 -9.953125 L 24.3125 -9.953125 L 24.3125 -10.75 L 23.515625 -10.75 Z M 25.875 -9.953125 L 26.625 -9.953125 L 26.625 -10.71875 L 25.875 -10.71875 Z M 28.203125 -9.953125 L 28.984375 -9.953125 L 28.984375 -10.71875 L 28.203125 -10.71875 Z M 30.5625 -9.953125 L 31.3125 -9.953125 L 31.3125 -10.71875 L 30.5625 -10.71875 Z M 32.890625 -9.953125 L 33.4375 -9.953125 L 33.640625 -10.0625 L 33.640625 -10.71875 L 32.890625 -10.71875 Z M 17.65625 -8.75 L 18.5 -8.75 L 18.5 -9.59375 L 17.65625 -9.59375 Z M 20.015625 -8.78125 L 20.828125 -8.78125 L 20.828125 -9.59375 L 20.015625 -9.59375 Z M 22.34375 -8.78125 L 23.15625 -8.78125 L 23.15625 -9.5625 L 22.34375 -9.5625 Z M 24.703125 -8.78125 L 25.484375 -8.78125 L 25.484375 -9.5625 L 24.703125 -9.5625 Z M 27.03125 -8.78125 L 27.8125 -8.78125 L 27.8125 -9.5625 L 27.03125 -9.5625 Z M 29.375 -8.78125 L 30.140625 -8.78125 L 30.140625 -9.5625 L 29.375 -9.5625 Z M 31.703125 -9.234375 L 32.421875 -9.53125 L 31.703125 -9.53125 Z M 15.328125 -8.75 L 16.1875 -8.75 L 16.1875 -9.328125 L 15.328125 -8.96875 Z M 14.15625 -7.5625 L 15.03125 -7.5625 L 15.03125 -8.453125 L 14.15625 -8.453125 Z M 16.515625 -7.5625 L 17.359375 -7.5625 L 17.359375 -8.421875 L 16.515625 -8.421875 Z M 18.828125 -7.59375 L 19.6875 -7.59375 L 19.6875 -8.421875 L 18.828125 -8.421875 Z M 21.1875 -7.59375 L 22.015625 -7.59375 L 22.015625 -8.421875 L 21.1875 -8.421875 Z M 23.515625 -7.59375 L 24.34375 -7.59375 L 24.34375 -8.421875 L 23.515625 -8.421875 Z M 25.875 -7.59375 L 26.65625 -7.59375 L 26.65625 -8.390625 L 25.875 -8.390625 Z M 28.203125 -7.734375 L 28.984375 -8.0625 L 28.984375 -8.390625 L 28.203125 -8.390625 Z M 12.015625 -7.5625 L 12.671875 -7.5625 L 12.671875 -7.828125 Z M 10.640625 -6.390625 L 11.53125 -6.390625 L 11.53125 -7.265625 L 11.328125 -7.265625 L 10.640625 -6.984375 Z M 12.96875 -6.390625 L 13.859375 -6.390625 L 13.859375 -7.265625 L 12.96875 -7.265625 Z M 15.328125 -6.421875 L 16.1875 -6.421875 L 16.1875 -7.265625 L 15.328125 -7.265625 Z M 17.65625 -6.421875 L 18.5 -6.421875 L 18.5 -7.265625 L 17.65625 -7.265625 Z M 20.015625 -6.421875 L 20.828125 -6.421875 L 20.828125 -7.234375 L 20.015625 -7.234375 Z M 22.34375 -6.421875 L 23.15625 -6.421875 L 23.15625 -7.234375 L 22.34375 -7.234375 Z M 24.703125 -6.421875 L 25.09375 -6.421875 L 25.484375 -6.578125 L 25.484375 -7.234375 L 24.703125 -7.234375 Z M 9.46875 -5.203125 L 10.390625 -5.203125 L 10.390625 -6.125 L 9.46875 -6.125 Z M 11.796875 -5.203125 L 12.703125 -5.203125 L 12.703125 -6.125 L 11.796875 -6.125 Z M 14.15625 -5.234375 L 15.03125 -5.234375 L 15.03125 -6.125 L 14.15625 -6.125 Z M 16.46875 -5.234375 L 17.359375 -5.234375 L 17.359375 -6.09375 L 16.46875 -6.09375 Z M 18.828125 -5.234375 L 19.6875 -5.234375 L 19.6875 -6.09375 L 18.828125 -6.09375 Z M 21.15625 -5.234375 L 22.015625 -5.234375 L 22.015625 -6.09375 L 21.15625 -6.09375 Z M 23.515625 -5.765625 L 24.3125 -6.09375 L 23.515625 -6.09375 Z M 7.109375 -5.203125 L 8.0625 -5.203125 L 8.0625 -5.859375 L 7.109375 -5.46875 Z M 5.921875 -4.03125 L 6.875 -4.03125 L 6.875 -4.984375 L 5.921875 -4.984375 Z M 8.28125 -4.03125 L 9.203125 -4.03125 L 9.203125 -4.984375 L 8.28125 -4.984375 Z M 10.640625 -4.0625 L 11.53125 -4.0625 L 11.53125 -4.953125 L 10.640625 -4.953125 Z M 12.96875 -4.0625 L 13.859375 -4.0625 L 13.859375 -4.953125 L 12.96875 -4.953125 Z M 15.296875 -4.0625 L 16.1875 -4.0625 L 16.1875 -4.953125 L 15.296875 -4.953125 Z M 17.65625 -4.0625 L 18.5 -4.0625 L 18.5 -4.953125 L 17.65625 -4.953125 Z M 19.984375 -4.265625 L 20.828125 -4.625 L 20.828125 -4.90625 L 19.984375 -4.90625 Z M 4.421875 -4.03125 L 4.546875 -4.03125 L 4.546875 -4.390625 L 4.15625 -4.21875 Z M 5.734375 -2.984375 L 5.734375 -3.796875 L 4.78125 -3.796875 L 4.78125 -3.734375 Z M 7.109375 -2.84375 L 8.0625 -2.84375 L 8.0625 -3.796875 L 7.109375 -3.796875 Z M 9.46875 -2.875 L 10.390625 -2.875 L 10.390625 -3.796875 L 9.46875 -3.796875 Z M 11.796875 -2.875 L 12.703125 -2.875 L 12.703125 -3.796875 L 11.796875 -3.796875 Z M 14.15625 -2.875 L 15.03125 -2.875 L 15.03125 -3.796875 L 14.15625 -3.796875 Z M 16.46875 -2.875 L 16.734375 -2.875 L 17.359375 -3.140625 L 17.359375 -3.765625 L 16.46875 -3.765625 Z M 6.875 -2.0625 L 6.875 -2.65625 L 6.125 -2.65625 Z M 8.28125 -1.703125 L 9.203125 -1.703125 L 9.203125 -2.65625 L 8.28125 -2.65625 Z M 10.609375 -1.703125 L 11.53125 -1.703125 L 11.53125 -2.625 L 10.609375 -2.625 Z M 12.96875 -1.703125 L 13.890625 -1.703125 L 13.890625 -2.625 L 12.96875 -2.625 Z M 15.296875 -2.265625 L 16.109375 -2.625 L 15.296875 -2.625 Z M 8.0625 -1.109375 L 8.0625 -1.46875 L 7.59375 -1.46875 Z M 9.4375 -0.53125 L 10.390625 -0.53125 L 10.390625 -1.46875 L 9.4375 -1.46875 Z M 11.796875 -0.78125 L 12.703125 -1.171875 L 12.703125 -1.46875 L 11.796875 -1.46875 Z M 9.234375 -0.203125 L 9.234375 -0.328125 L 9.046875 -0.328125 Z M 9.234375 -0.203125 "/></g></g></g></svg>